<svg width="150" height="150" viewBox="0 0 150 150" fill="none" xmlns="http://www.w3.org/2000/svg">
<ellipse cx="5.66038" cy="6.30252" rx="5.66038" ry="6.30252" fill="#F1F3F4"/>
<path d="M9.32075 6.30252C9.32075 8.88629 7.48523 10.605 5.66038 10.605C3.83552 10.605 2 8.88629 2 6.30252C2 3.71874 3.83552 2 5.66038 2C7.48523 2 9.32075 3.71874 9.32075 6.30252Z" stroke="#9494A1" stroke-opacity="0.52" stroke-width="4"/>
<ellipse cx="24.3396" cy="6.30252" rx="5.66038" ry="6.30252" fill="#F1F3F4"/>
<path d="M28 6.30252C28 8.88629 26.1645 10.605 24.3396 10.605C22.5148 10.605 20.6792 8.88629 20.6792 6.30252C20.6792 3.71874 22.5148 2 24.3396 2C26.1645 2 28 3.71874 28 6.30252Z" stroke="#9494A1" stroke-opacity="0.52" stroke-width="4"/>
<ellipse cx="44.151" cy="6.30252" rx="5.66038" ry="6.30252" fill="#F1F3F4"/>
<path d="M47.8114 6.30252C47.8114 8.88629 45.9758 10.605 44.151 10.605C42.3261 10.605 40.4906 8.88629 40.4906 6.30252C40.4906 3.71874 42.3261 2 44.151 2C45.9758 2 47.8114 3.71874 47.8114 6.30252Z" stroke="#FFA500" stroke-opacity="0.52" stroke-width="4"/>
<ellipse cx="62.8302" cy="6.30252" rx="5.66038" ry="6.30252" fill="#F1F3F4"/>
<path d="M66.4906 6.30252C66.4906 8.88629 64.655 10.605 62.8302 10.605C61.0053 10.605 59.1698 8.88629 59.1698 6.30252C59.1698 3.71874 61.0053 2 62.8302 2C64.655 2 66.4906 3.71874 66.4906 6.30252Z" stroke="#9494A1" stroke-opacity="0.52" stroke-width="4"/>
<ellipse cx="82.6416" cy="6.30252" rx="5.66038" ry="6.30252" fill="#F1F3F4"/>
<path d="M86.302 6.30252C86.302 8.88629 84.4665 10.605 82.6416 10.605C80.8168 10.605 78.9812 8.88629 78.9812 6.30252C78.9812 3.71874 80.8168 2 82.6416 2C84.4665 2 86.302 3.71874 86.302 6.30252Z" stroke="#9494A1" stroke-opacity="0.52" stroke-width="4"/>
<ellipse cx="103.585" cy="6.30252" rx="5.66038" ry="6.30252" fill="#F1F3F4"/>
<path d="M107.245 6.30252C107.245 8.88629 105.41 10.605 103.585 10.605C101.76 10.605 99.9245 8.88629 99.9245 6.30252C99.9245 3.71874 101.76 2 103.585 2C105.41 2 107.245 3.71874 107.245 6.30252Z" stroke="#9494A1" stroke-opacity="0.52" stroke-width="4"/>
<ellipse cx="123.396" cy="6.30252" rx="5.66038" ry="6.30252" fill="#F1F3F4"/>
<path d="M127.056 6.30252C127.056 8.88629 125.221 10.605 123.396 10.605C121.571 10.605 119.736 8.88629 119.736 6.30252C119.736 3.71874 121.571 2 123.396 2C125.221 2 127.056 3.71874 127.056 6.30252Z" stroke="#FFA500" stroke-opacity="0.52" stroke-width="4"/>
<ellipse cx="144.34" cy="6.30252" rx="5.66038" ry="6.30252" fill="#F1F3F4"/>
<path d="M148 6.30252C148 8.88629 146.164 10.605 144.34 10.605C142.515 10.605 140.679 8.88629 140.679 6.30252C140.679 3.71874 142.515 2 144.34 2C146.164 2 148 3.71874 148 6.30252Z" stroke="#9494A1" stroke-opacity="0.52" stroke-width="4"/>
<ellipse cx="5.66038" cy="25.8406" rx="5.66038" ry="6.30252" fill="#F1F3F4"/>
<path d="M9.32075 25.8406C9.32075 28.4244 7.48523 30.1431 5.66038 30.1431C3.83552 30.1431 2 28.4244 2 25.8406C2 23.2568 3.83552 21.5381 5.66038 21.5381C7.48523 21.5381 9.32075 23.2568 9.32075 25.8406Z" stroke="#FFA500" stroke-opacity="0.52" stroke-width="4"/>
<ellipse cx="24.3396" cy="25.8406" rx="5.66038" ry="6.30252" fill="#F1F3F4"/>
<path d="M28 25.8406C28 28.4244 26.1644 30.1431 24.3396 30.1431C22.5147 30.1431 20.6792 28.4244 20.6792 25.8406C20.6792 23.2568 22.5147 21.5381 24.3396 21.5381C26.1644 21.5381 28 23.2568 28 25.8406Z" stroke="#9494A1" stroke-opacity="0.52" stroke-width="4"/>
<ellipse cx="44.151" cy="25.8406" rx="5.66038" ry="6.30252" fill="#F1F3F4"/>
<path d="M47.8114 25.8406C47.8114 28.4244 45.9758 30.1431 44.151 30.1431C42.3261 30.1431 40.4906 28.4244 40.4906 25.8406C40.4906 23.2568 42.3261 21.5381 44.151 21.5381C45.9758 21.5381 47.8114 23.2568 47.8114 25.8406Z" stroke="#9494A1" stroke-opacity="0.52" stroke-width="4"/>
<ellipse cx="62.8301" cy="25.8406" rx="5.66038" ry="6.30252" fill="#F1F3F4"/>
<path d="M66.4905 25.8406C66.4905 28.4244 64.655 30.1431 62.8301 30.1431C61.0053 30.1431 59.1698 28.4244 59.1698 25.8406C59.1698 23.2568 61.0053 21.5381 62.8301 21.5381C64.655 21.5381 66.4905 23.2568 66.4905 25.8406Z" stroke="#9494A1" stroke-opacity="0.52" stroke-width="4"/>
<ellipse cx="82.6416" cy="25.8406" rx="5.66038" ry="6.30252" fill="#F1F3F4"/>
<path d="M86.302 25.8406C86.302 28.4244 84.4665 30.1431 82.6416 30.1431C80.8168 30.1431 78.9813 28.4244 78.9813 25.8406C78.9813 23.2568 80.8168 21.5381 82.6416 21.5381C84.4665 21.5381 86.302 23.2568 86.302 25.8406Z" stroke="#FFA500" stroke-opacity="0.52" stroke-width="4"/>
<ellipse cx="103.585" cy="25.8406" rx="5.66038" ry="6.30252" fill="#F1F3F4"/>
<path d="M107.245 25.8406C107.245 28.4244 105.41 30.1431 103.585 30.1431C101.76 30.1431 99.9245 28.4244 99.9245 25.8406C99.9245 23.2568 101.76 21.5381 103.585 21.5381C105.41 21.5381 107.245 23.2568 107.245 25.8406Z" stroke="#9494A1" stroke-opacity="0.52" stroke-width="4"/>
<ellipse cx="123.396" cy="25.8406" rx="5.66038" ry="6.30252" fill="#F1F3F4"/>
<path d="M127.056 25.8406C127.056 28.4244 125.221 30.1431 123.396 30.1431C121.571 30.1431 119.736 28.4244 119.736 25.8406C119.736 23.2568 121.571 21.5381 123.396 21.5381C125.221 21.5381 127.056 23.2568 127.056 25.8406Z" stroke="#9494A1" stroke-opacity="0.52" stroke-width="4"/>
<ellipse cx="144.34" cy="25.8406" rx="5.66038" ry="6.30252" fill="#F1F3F4"/>
<path d="M148 25.8406C148 28.4244 146.164 30.1431 144.34 30.1431C142.515 30.1431 140.679 28.4244 140.679 25.8406C140.679 23.2568 142.515 21.5381 144.34 21.5381C146.164 21.5381 148 23.2568 148 25.8406Z" stroke="#9494A1" stroke-opacity="0.52" stroke-width="4"/>
<ellipse cx="5.66038" cy="46.0081" rx="5.66038" ry="6.30252" fill="#F1F3F4"/>
<path d="M9.32075 46.0081C9.32075 48.5919 7.48523 50.3106 5.66038 50.3106C3.83552 50.3106 2 48.5919 2 46.0081C2 43.4243 3.83552 41.7056 5.66038 41.7056C7.48523 41.7056 9.32075 43.4243 9.32075 46.0081Z" stroke="#9494A1" stroke-opacity="0.52" stroke-width="4"/>
<ellipse cx="24.3396" cy="46.0081" rx="5.66038" ry="6.30252" fill="#F1F3F4"/>
<path d="M29 46.0081C29 49.0404 26.8151 51.3106 24.3396 51.3106C21.8641 51.3106 19.6792 49.0404 19.6792 46.0081C19.6792 42.9758 21.8641 40.7056 24.3396 40.7056C26.8151 40.7056 29 42.9758 29 46.0081Z" stroke="#9494A1" stroke-opacity="0.52" stroke-width="2"/>
<ellipse cx="44.151" cy="46.0081" rx="5.66038" ry="6.30252" fill="#F1F3F4"/>
<path d="M47.8114 46.0081C47.8114 48.5919 45.9758 50.3106 44.151 50.3106C42.3261 50.3106 40.4906 48.5919 40.4906 46.0081C40.4906 43.4243 42.3261 41.7056 44.151 41.7056C45.9758 41.7056 47.8114 43.4243 47.8114 46.0081Z" stroke="#9494A1" stroke-opacity="0.52" stroke-width="4"/>
<ellipse cx="62.8301" cy="46.0081" rx="5.66038" ry="6.30252" fill="#F1F3F4"/>
<path d="M66.4905 46.0081C66.4905 48.5919 64.655 50.3106 62.8301 50.3106C61.0053 50.3106 59.1698 48.5919 59.1698 46.0081C59.1698 43.4243 61.0053 41.7056 62.8301 41.7056C64.655 41.7056 66.4905 43.4243 66.4905 46.0081Z" stroke="#FFA500" stroke-opacity="0.52" stroke-width="4"/>
<ellipse cx="82.6416" cy="46.0081" rx="5.66038" ry="6.30252" fill="#F1F3F4"/>
<path d="M86.302 46.0081C86.302 48.5919 84.4665 50.3106 82.6416 50.3106C80.8168 50.3106 78.9813 48.5919 78.9813 46.0081C78.9813 43.4243 80.8168 41.7056 82.6416 41.7056C84.4665 41.7056 86.302 43.4243 86.302 46.0081Z" stroke="#9494A1" stroke-opacity="0.52" stroke-width="4"/>
<ellipse cx="103.585" cy="46.0081" rx="5.66038" ry="6.30252" fill="#F1F3F4"/>
<path d="M108.245 46.0081C108.245 49.0404 106.06 51.3106 103.585 51.3106C101.109 51.3106 98.9245 49.0404 98.9245 46.0081C98.9245 42.9758 101.109 40.7056 103.585 40.7056C106.06 40.7056 108.245 42.9758 108.245 46.0081Z" stroke="#9494A1" stroke-opacity="0.52" stroke-width="2"/>
<ellipse cx="123.396" cy="46.0081" rx="5.66038" ry="6.30252" fill="#F1F3F4"/>
<path d="M127.056 46.0081C127.056 48.5919 125.221 50.3106 123.396 50.3106C121.571 50.3106 119.736 48.5919 119.736 46.0081C119.736 43.4243 121.571 41.7056 123.396 41.7056C125.221 41.7056 127.056 43.4243 127.056 46.0081Z" stroke="#9494A1" stroke-opacity="0.52" stroke-width="4"/>
<ellipse cx="144.34" cy="46.0081" rx="5.66038" ry="6.30252" fill="#F1F3F4"/>
<path d="M148 46.0081C148 48.5919 146.164 50.3106 144.34 50.3106C142.515 50.3106 140.679 48.5919 140.679 46.0081C140.679 43.4243 142.515 41.7056 144.34 41.7056C146.164 41.7056 148 43.4243 148 46.0081Z" stroke="#FFA500" stroke-opacity="0.52" stroke-width="4"/>
<ellipse cx="5.66038" cy="65.5462" rx="5.66038" ry="6.30252" fill="#F1F3F4"/>
<path d="M9.32075 65.5462C9.32075 68.1299 7.48523 69.8487 5.66038 69.8487C3.83552 69.8487 2 68.1299 2 65.5462C2 62.9624 3.83552 61.2437 5.66038 61.2437C7.48523 61.2437 9.32075 62.9624 9.32075 65.5462Z" stroke="#9494A1" stroke-opacity="0.52" stroke-width="4"/>
<mask id="path-51-inside-1_317_761" fill="white">
<ellipse cx="24.3396" cy="65.5462" rx="5.66038" ry="6.30252"/>
</mask>
<ellipse cx="24.3396" cy="65.5462" rx="5.66038" ry="6.30252" fill="#F1F3F4"/>
<path d="M24 65.5462C24 65.831 23.8972 65.9723 23.8781 65.9936C23.8713 66.0012 23.9006 65.9657 23.9865 65.9252C24.0793 65.8815 24.2052 65.8487 24.3396 65.8487V77.8487C31.3696 77.8487 36 71.718 36 65.5462H24ZM24.3396 65.8487C24.474 65.8487 24.5998 65.8815 24.6927 65.9252C24.7786 65.9657 24.8079 66.0012 24.801 65.9936C24.782 65.9723 24.6792 65.831 24.6792 65.5462H12.6792C12.6792 71.718 17.3096 77.8487 24.3396 77.8487V65.8487ZM24.6792 65.5462C24.6792 65.2613 24.782 65.12 24.801 65.0988C24.8079 65.0911 24.7786 65.1266 24.6927 65.1671C24.5998 65.2108 24.474 65.2437 24.3396 65.2437V53.2437C17.3096 53.2437 12.6792 59.3744 12.6792 65.5462H24.6792ZM24.3396 65.2437C24.2052 65.2437 24.0793 65.2108 23.9865 65.1671C23.9006 65.1266 23.8713 65.0911 23.8781 65.0988C23.8972 65.12 24 65.2613 24 65.5462H36C36 59.3744 31.3696 53.2437 24.3396 53.2437V65.2437Z" fill="#FFA500" fill-opacity="0.52" mask="url(#path-51-inside-1_317_761)"/>
<ellipse cx="44.151" cy="65.5462" rx="5.66038" ry="6.30252" fill="#F1F3F4"/>
<path d="M47.8114 65.5462C47.8114 68.1299 45.9758 69.8487 44.151 69.8487C42.3261 69.8487 40.4906 68.1299 40.4906 65.5462C40.4906 62.9624 42.3261 61.2437 44.151 61.2437C45.9758 61.2437 47.8114 62.9624 47.8114 65.5462Z" stroke="#9494A1" stroke-opacity="0.52" stroke-width="4"/>
<ellipse cx="62.8301" cy="65.5462" rx="5.66038" ry="6.30252" fill="#F1F3F4"/>
<path d="M67.4905 65.5462C67.4905 68.5784 65.3056 70.8487 62.8301 70.8487C60.3547 70.8487 58.1698 68.5784 58.1698 65.5462C58.1698 62.5139 60.3547 60.2437 62.8301 60.2437C65.3056 60.2437 67.4905 62.5139 67.4905 65.5462Z" stroke="#9494A1" stroke-opacity="0.52" stroke-width="2"/>
<ellipse cx="82.6416" cy="65.5462" rx="5.66038" ry="6.30252" fill="#F1F3F4"/>
<path d="M86.302 65.5462C86.302 68.1299 84.4665 69.8487 82.6416 69.8487C80.8168 69.8487 78.9813 68.1299 78.9813 65.5462C78.9813 62.9624 80.8168 61.2437 82.6416 61.2437C84.4665 61.2437 86.302 62.9624 86.302 65.5462Z" stroke="#9494A1" stroke-opacity="0.52" stroke-width="4"/>
<mask id="path-59-inside-2_317_761" fill="white">
<ellipse cx="103.585" cy="65.5462" rx="5.66038" ry="6.30252"/>
</mask>
<ellipse cx="103.585" cy="65.5462" rx="5.66038" ry="6.30252" fill="#F1F3F4"/>
<path d="M103.245 65.5462C103.245 65.831 103.142 65.9723 103.123 65.9936C103.117 66.0012 103.146 65.9657 103.232 65.9252C103.325 65.8815 103.45 65.8487 103.585 65.8487V77.8487C110.615 77.8487 115.245 71.718 115.245 65.5462H103.245ZM103.585 65.8487C103.719 65.8487 103.845 65.8815 103.938 65.9252C104.024 65.9657 104.053 66.0012 104.046 65.9936C104.027 65.9723 103.924 65.831 103.924 65.5462H91.9245C91.9245 71.718 96.5549 77.8487 103.585 77.8487V65.8487ZM103.924 65.5462C103.924 65.2613 104.027 65.12 104.046 65.0988C104.053 65.0911 104.024 65.1266 103.938 65.1671C103.845 65.2108 103.719 65.2437 103.585 65.2437V53.2437C96.5549 53.2437 91.9245 59.3744 91.9245 65.5462H103.924ZM103.585 65.2437C103.45 65.2437 103.325 65.2108 103.232 65.1671C103.146 65.1266 103.117 65.0911 103.123 65.0988C103.142 65.12 103.245 65.2613 103.245 65.5462H115.245C115.245 59.3744 110.615 53.2437 103.585 53.2437V65.2437Z" fill="#FFA500" fill-opacity="0.52" mask="url(#path-59-inside-2_317_761)"/>
<ellipse cx="123.396" cy="65.5462" rx="5.66038" ry="6.30252" fill="#F1F3F4"/>
<path d="M127.056 65.5462C127.056 68.1299 125.221 69.8487 123.396 69.8487C121.571 69.8487 119.736 68.1299 119.736 65.5462C119.736 62.9624 121.571 61.2437 123.396 61.2437C125.221 61.2437 127.056 62.9624 127.056 65.5462Z" stroke="#9494A1" stroke-opacity="0.52" stroke-width="4"/>
<ellipse cx="144.34" cy="65.5462" rx="5.66038" ry="6.30252" fill="#F1F3F4"/>
<path d="M148.5 65.5462C148.5 68.3542 146.49 70.3487 144.34 70.3487C142.189 70.3487 140.179 68.3542 140.179 65.5462C140.179 62.7381 142.189 60.7437 144.34 60.7437C146.49 60.7437 148.5 62.7381 148.5 65.5462Z" stroke="#FFA500" stroke-opacity="0.52" stroke-width="3"/>
<ellipse cx="5.66038" cy="84.4544" rx="5.66038" ry="6.30252" fill="#F1F3F4"/>
<path d="M9.32075 84.4544C9.32075 87.0381 7.48523 88.7569 5.66038 88.7569C3.83552 88.7569 2 87.0381 2 84.4544C2 81.8706 3.83552 80.1519 5.66038 80.1519C7.48523 80.1519 9.32075 81.8706 9.32075 84.4544Z" stroke="#9494A1" stroke-opacity="0.52" stroke-width="4"/>
<ellipse cx="24.3396" cy="84.4544" rx="5.66038" ry="6.30252" fill="#F1F3F4"/>
<path d="M28 84.4544C28 87.0381 26.1644 88.7569 24.3396 88.7569C22.5147 88.7569 20.6792 87.0381 20.6792 84.4544C20.6792 81.8706 22.5147 80.1519 24.3396 80.1519C26.1644 80.1519 28 81.8706 28 84.4544Z" stroke="#9494A1" stroke-opacity="0.52" stroke-width="4"/>
<ellipse cx="44.151" cy="84.4544" rx="5.66038" ry="6.30252" fill="#F1F3F4"/>
<path d="M47.8114 84.4544C47.8114 87.0381 45.9758 88.7569 44.151 88.7569C42.3261 88.7569 40.4906 87.0381 40.4906 84.4544C40.4906 81.8706 42.3261 80.1519 44.151 80.1519C45.9758 80.1519 47.8114 81.8706 47.8114 84.4544Z" stroke="#FFA500" stroke-opacity="0.52" stroke-width="4"/>
<ellipse cx="62.8301" cy="84.4544" rx="5.66038" ry="6.30252" fill="#F1F3F4"/>
<path d="M66.4905 84.4544C66.4905 87.0381 64.655 88.7569 62.8301 88.7569C61.0053 88.7569 59.1698 87.0381 59.1698 84.4544C59.1698 81.8706 61.0053 80.1519 62.8301 80.1519C64.655 80.1519 66.4905 81.8706 66.4905 84.4544Z" stroke="#9494A1" stroke-opacity="0.52" stroke-width="4"/>
<ellipse cx="82.6416" cy="84.4544" rx="5.66038" ry="6.30252" fill="#F1F3F4"/>
<path d="M86.302 84.4544C86.302 87.0381 84.4665 88.7569 82.6416 88.7569C80.8168 88.7569 78.9813 87.0381 78.9813 84.4544C78.9813 81.8706 80.8168 80.1519 82.6416 80.1519C84.4665 80.1519 86.302 81.8706 86.302 84.4544Z" stroke="#9494A1" stroke-opacity="0.52" stroke-width="4"/>
<ellipse cx="103.585" cy="84.4544" rx="5.66038" ry="6.30252" fill="#F1F3F4"/>
<path d="M107.245 84.4544C107.245 87.0381 105.41 88.7569 103.585 88.7569C101.76 88.7569 99.9245 87.0381 99.9245 84.4544C99.9245 81.8706 101.76 80.1519 103.585 80.1519C105.41 80.1519 107.245 81.8706 107.245 84.4544Z" stroke="#9494A1" stroke-opacity="0.52" stroke-width="4"/>
<ellipse cx="123.396" cy="84.4544" rx="5.66038" ry="6.30252" fill="#F1F3F4"/>
<path d="M127.056 84.4544C127.056 87.0381 125.221 88.7569 123.396 88.7569C121.571 88.7569 119.736 87.0381 119.736 84.4544C119.736 81.8706 121.571 80.1519 123.396 80.1519C125.221 80.1519 127.056 81.8706 127.056 84.4544Z" stroke="#FFA500" stroke-opacity="0.52" stroke-width="4"/>
<ellipse cx="144.34" cy="84.4544" rx="5.66038" ry="6.30252" fill="#F1F3F4"/>
<path d="M148 84.4544C148 87.0381 146.164 88.7569 144.34 88.7569C142.515 88.7569 140.679 87.0381 140.679 84.4544C140.679 81.8706 142.515 80.1519 144.34 80.1519C146.164 80.1519 148 81.8706 148 84.4544Z" stroke="#9494A1" stroke-opacity="0.52" stroke-width="4"/>
<ellipse cx="5.66038" cy="103.362" rx="5.66038" ry="6.30252" fill="#F1F3F4"/>
<path d="M9.32075 103.362C9.32075 105.945 7.48523 107.664 5.66038 107.664C3.83552 107.664 2 105.945 2 103.362C2 100.778 3.83552 99.0591 5.66038 99.0591C7.48523 99.0591 9.32075 100.778 9.32075 103.362Z" stroke="#FFA500" stroke-opacity="0.52" stroke-width="4"/>
<ellipse cx="24.3396" cy="103.362" rx="5.66038" ry="6.30252" fill="#F1F3F4"/>
<path d="M28 103.362C28 105.945 26.1644 107.664 24.3396 107.664C22.5147 107.664 20.6792 105.945 20.6792 103.362C20.6792 100.778 22.5147 99.0591 24.3396 99.0591C26.1644 99.0591 28 100.778 28 103.362Z" stroke="#9494A1" stroke-opacity="0.52" stroke-width="4"/>
<ellipse cx="44.151" cy="103.362" rx="5.66038" ry="6.30252" fill="#F1F3F4"/>
<path d="M47.8114 103.362C47.8114 105.945 45.9758 107.664 44.151 107.664C42.3261 107.664 40.4906 105.945 40.4906 103.362C40.4906 100.778 42.3261 99.0591 44.151 99.0591C45.9758 99.0591 47.8114 100.778 47.8114 103.362Z" stroke="#9494A1" stroke-opacity="0.52" stroke-width="4"/>
<ellipse cx="62.8301" cy="103.362" rx="5.66038" ry="6.30252" fill="#F1F3F4"/>
<path d="M66.4905 103.362C66.4905 105.945 64.655 107.664 62.8301 107.664C61.0053 107.664 59.1698 105.945 59.1698 103.362C59.1698 100.778 61.0053 99.0591 62.8301 99.0591C64.655 99.0591 66.4905 100.778 66.4905 103.362Z" stroke="#9494A1" stroke-opacity="0.52" stroke-width="4"/>
<ellipse cx="82.6416" cy="103.362" rx="5.66038" ry="6.30252" fill="#F1F3F4"/>
<path d="M86.302 103.362C86.302 105.945 84.4665 107.664 82.6416 107.664C80.8168 107.664 78.9813 105.945 78.9813 103.362C78.9813 100.778 80.8168 99.0591 82.6416 99.0591C84.4665 99.0591 86.302 100.778 86.302 103.362Z" stroke="#FFA500" stroke-opacity="0.52" stroke-width="4"/>
<ellipse cx="103.585" cy="103.362" rx="5.66038" ry="6.30252" fill="#F1F3F4"/>
<path d="M107.245 103.362C107.245 105.945 105.41 107.664 103.585 107.664C101.76 107.664 99.9245 105.945 99.9245 103.362C99.9245 100.778 101.76 99.0591 103.585 99.0591C105.41 99.0591 107.245 100.778 107.245 103.362Z" stroke="#9494A1" stroke-opacity="0.52" stroke-width="4"/>
<ellipse cx="123.396" cy="103.362" rx="5.66038" ry="6.30252" fill="#F1F3F4"/>
<path d="M127.056 103.362C127.056 105.945 125.221 107.664 123.396 107.664C121.571 107.664 119.736 105.945 119.736 103.362C119.736 100.778 121.571 99.0591 123.396 99.0591C125.221 99.0591 127.056 100.778 127.056 103.362Z" stroke="#9494A1" stroke-opacity="0.52" stroke-width="4"/>
<ellipse cx="144.34" cy="103.362" rx="5.66038" ry="6.30252" fill="#F1F3F4"/>
<path d="M148 103.362C148 105.945 146.164 107.664 144.34 107.664C142.515 107.664 140.679 105.945 140.679 103.362C140.679 100.778 142.515 99.0591 144.34 99.0591C146.164 99.0591 148 100.778 148 103.362Z" stroke="#9494A1" stroke-opacity="0.52" stroke-width="4"/>
<ellipse cx="5.66038" cy="122.899" rx="5.66038" ry="6.30252" fill="#F1F3F4"/>
<path d="M9.32075 122.899C9.32075 125.482 7.48523 127.201 5.66038 127.201C3.83552 127.201 2 125.482 2 122.899C2 120.315 3.83552 118.596 5.66038 118.596C7.48523 118.596 9.32075 120.315 9.32075 122.899Z" stroke="#9494A1" stroke-opacity="0.52" stroke-width="4"/>
<ellipse cx="24.3396" cy="122.899" rx="5.66038" ry="6.30252" fill="#F1F3F4"/>
<path d="M29 122.899C29 125.931 26.8151 128.201 24.3396 128.201C21.8641 128.201 19.6792 125.931 19.6792 122.899C19.6792 119.866 21.8641 117.596 24.3396 117.596C26.8151 117.596 29 119.866 29 122.899Z" stroke="#9494A1" stroke-opacity="0.52" stroke-width="2"/>
<ellipse cx="44.151" cy="122.899" rx="5.66038" ry="6.30252" fill="#F1F3F4"/>
<path d="M47.8114 122.899C47.8114 125.482 45.9758 127.201 44.151 127.201C42.3261 127.201 40.4906 125.482 40.4906 122.899C40.4906 120.315 42.3261 118.596 44.151 118.596C45.9758 118.596 47.8114 120.315 47.8114 122.899Z" stroke="#9494A1" stroke-opacity="0.52" stroke-width="4"/>
<ellipse cx="62.8301" cy="122.899" rx="5.66038" ry="6.30252" fill="#F1F3F4"/>
<path d="M66.4905 122.899C66.4905 125.482 64.655 127.201 62.8301 127.201C61.0053 127.201 59.1698 125.482 59.1698 122.899C59.1698 120.315 61.0053 118.596 62.8301 118.596C64.655 118.596 66.4905 120.315 66.4905 122.899Z" stroke="#FFA500" stroke-opacity="0.52" stroke-width="4"/>
<ellipse cx="82.6416" cy="122.899" rx="5.66038" ry="6.30252" fill="#F1F3F4"/>
<path d="M86.302 122.899C86.302 125.482 84.4665 127.201 82.6416 127.201C80.8168 127.201 78.9813 125.482 78.9813 122.899C78.9813 120.315 80.8168 118.596 82.6416 118.596C84.4665 118.596 86.302 120.315 86.302 122.899Z" stroke="#9494A1" stroke-opacity="0.52" stroke-width="4"/>
<ellipse cx="103.585" cy="122.899" rx="5.66038" ry="6.30252" fill="#F1F3F4"/>
<path d="M108.245 122.899C108.245 125.931 106.06 128.201 103.585 128.201C101.109 128.201 98.9245 125.931 98.9245 122.899C98.9245 119.866 101.109 117.596 103.585 117.596C106.06 117.596 108.245 119.866 108.245 122.899Z" stroke="#9494A1" stroke-opacity="0.52" stroke-width="2"/>
<ellipse cx="123.396" cy="122.899" rx="5.66038" ry="6.30252" fill="#F1F3F4"/>
<path d="M127.056 122.899C127.056 125.482 125.221 127.201 123.396 127.201C121.571 127.201 119.736 125.482 119.736 122.899C119.736 120.315 121.571 118.596 123.396 118.596C125.221 118.596 127.056 120.315 127.056 122.899Z" stroke="#9494A1" stroke-opacity="0.52" stroke-width="4"/>
<ellipse cx="144.34" cy="122.899" rx="5.66038" ry="6.30252" fill="#F1F3F4"/>
<path d="M148 122.899C148 125.482 146.164 127.201 144.34 127.201C142.515 127.201 140.679 125.482 140.679 122.899C140.679 120.315 142.515 118.596 144.34 118.596C146.164 118.596 148 120.315 148 122.899Z" stroke="#FFA500" stroke-opacity="0.52" stroke-width="4"/>
<ellipse cx="5.66038" cy="143.698" rx="5.66038" ry="6.30252" fill="#F1F3F4"/>
<path d="M9.32075 143.698C9.32075 146.282 7.48523 148.001 5.66038 148.001C3.83552 148.001 2 146.282 2 143.698C2 141.114 3.83552 139.396 5.66038 139.396C7.48523 139.396 9.32075 141.114 9.32075 143.698Z" stroke="#9494A1" stroke-opacity="0.52" stroke-width="4"/>
<mask id="path-115-inside-3_317_761" fill="white">
<ellipse cx="24.3396" cy="143.698" rx="5.66038" ry="6.30252"/>
</mask>
<ellipse cx="24.3396" cy="143.698" rx="5.66038" ry="6.30252" fill="#F1F3F4"/>
<path d="M24 143.698C24 143.983 23.8972 144.124 23.8781 144.145C23.8713 144.153 23.9006 144.118 23.9865 144.077C24.0793 144.033 24.2052 144.001 24.3396 144.001V156.001C31.3696 156.001 36 149.87 36 143.698H24ZM24.3396 144.001C24.474 144.001 24.5998 144.033 24.6927 144.077C24.7786 144.118 24.8079 144.153 24.801 144.145C24.782 144.124 24.6792 143.983 24.6792 143.698H12.6792C12.6792 149.87 17.3096 156.001 24.3396 156.001V144.001ZM24.6792 143.698C24.6792 143.413 24.782 143.272 24.801 143.251C24.8079 143.243 24.7786 143.279 24.6927 143.319C24.5998 143.363 24.474 143.396 24.3396 143.396V131.396C17.3096 131.396 12.6792 137.526 12.6792 143.698H24.6792ZM24.3396 143.396C24.2052 143.396 24.0793 143.363 23.9865 143.319C23.9006 143.279 23.8713 143.243 23.8781 143.251C23.8972 143.272 24 143.413 24 143.698H36C36 137.526 31.3696 131.396 24.3396 131.396V143.396Z" fill="#FFA500" fill-opacity="0.52" mask="url(#path-115-inside-3_317_761)"/>
<ellipse cx="44.151" cy="143.698" rx="5.66038" ry="6.30252" fill="#F1F3F4"/>
<path d="M47.8114 143.698C47.8114 146.282 45.9758 148.001 44.151 148.001C42.3261 148.001 40.4906 146.282 40.4906 143.698C40.4906 141.114 42.3261 139.396 44.151 139.396C45.9758 139.396 47.8114 141.114 47.8114 143.698Z" stroke="#9494A1" stroke-opacity="0.52" stroke-width="4"/>
<ellipse cx="62.8301" cy="143.698" rx="5.66038" ry="6.30252" fill="#F1F3F4"/>
<path d="M67.4905 143.698C67.4905 146.73 65.3056 149.001 62.8301 149.001C60.3547 149.001 58.1698 146.73 58.1698 143.698C58.1698 140.666 60.3547 138.396 62.8301 138.396C65.3056 138.396 67.4905 140.666 67.4905 143.698Z" stroke="#9494A1" stroke-opacity="0.52" stroke-width="2"/>
<ellipse cx="82.6416" cy="143.698" rx="5.66038" ry="6.30252" fill="#F1F3F4"/>
<path d="M86.302 143.698C86.302 146.282 84.4665 148.001 82.6416 148.001C80.8168 148.001 78.9813 146.282 78.9813 143.698C78.9813 141.114 80.8168 139.396 82.6416 139.396C84.4665 139.396 86.302 141.114 86.302 143.698Z" stroke="#9494A1" stroke-opacity="0.52" stroke-width="4"/>
<mask id="path-123-inside-4_317_761" fill="white">
<ellipse cx="103.585" cy="143.698" rx="5.66038" ry="6.30252"/>
</mask>
<ellipse cx="103.585" cy="143.698" rx="5.66038" ry="6.30252" fill="#F1F3F4"/>
<path d="M103.245 143.698C103.245 143.983 103.142 144.124 103.123 144.145C103.117 144.153 103.146 144.118 103.232 144.077C103.325 144.033 103.45 144.001 103.585 144.001V156.001C110.615 156.001 115.245 149.87 115.245 143.698H103.245ZM103.585 144.001C103.719 144.001 103.845 144.033 103.938 144.077C104.024 144.118 104.053 144.153 104.046 144.145C104.027 144.124 103.924 143.983 103.924 143.698H91.9245C91.9245 149.87 96.5549 156.001 103.585 156.001V144.001ZM103.924 143.698C103.924 143.413 104.027 143.272 104.046 143.251C104.053 143.243 104.024 143.279 103.938 143.319C103.845 143.363 103.719 143.396 103.585 143.396V131.396C96.5549 131.396 91.9245 137.526 91.9245 143.698H103.924ZM103.585 143.396C103.45 143.396 103.325 143.363 103.232 143.319C103.146 143.279 103.117 143.243 103.123 143.251C103.142 143.272 103.245 143.413 103.245 143.698H115.245C115.245 137.526 110.615 131.396 103.585 131.396V143.396Z" fill="#FFA500" fill-opacity="0.52" mask="url(#path-123-inside-4_317_761)"/>
<ellipse cx="123.396" cy="143.698" rx="5.66038" ry="6.30252" fill="#F1F3F4"/>
<path d="M127.056 143.698C127.056 146.282 125.221 148.001 123.396 148.001C121.571 148.001 119.736 146.282 119.736 143.698C119.736 141.114 121.571 139.396 123.396 139.396C125.221 139.396 127.056 141.114 127.056 143.698Z" stroke="#9494A1" stroke-opacity="0.52" stroke-width="4"/>
<ellipse cx="144.34" cy="143.698" rx="5.66038" ry="6.30252" fill="#F1F3F4"/>
<path d="M149 143.698C149 146.73 146.815 149.001 144.34 149.001C141.864 149.001 139.679 146.73 139.679 143.698C139.679 140.666 141.864 138.396 144.34 138.396C146.815 138.396 149 140.666 149 143.698Z" stroke="#9494A1" stroke-opacity="0.52" stroke-width="2"/>
</svg>
