<svg width="114" height="157" viewBox="0 0 114 157" fill="none" xmlns="http://www.w3.org/2000/svg">
<line y1="-4" x2="48.5721" y2="-4" transform="matrix(0.823473 -0.567356 0.493051 0.87 16.5717 34.5576)" stroke="#FFA500" stroke-opacity="0.54" stroke-width="8"/>
<line y1="-4" x2="48.5721" y2="-4" transform="matrix(0.823473 -0.567356 0.493051 0.87 107.366 157)" stroke="#FFA500" stroke-opacity="0.54" stroke-width="8"/>
<line y1="-4" x2="90.2895" y2="-4" transform="matrix(0.823473 -0.567356 0.493051 0.87 8.88892 59.9702)" stroke="#FFA500" stroke-opacity="0.26" stroke-width="8"/>
<line y1="-4" x2="90.2895" y2="-4" transform="matrix(0.823473 -0.567356 0.493051 0.87 77.3345 156.23)" stroke="#FFA500" stroke-opacity="0.26" stroke-width="8"/>
<line y1="-4" x2="121.937" y2="-4" transform="matrix(0.823473 -0.567356 0.493051 0.87 4 83.0723)" stroke="#FFA500" stroke-opacity="0.54" stroke-width="8"/>
<line y1="-4" x2="121.937" y2="-4" transform="matrix(0.823473 -0.567356 0.493051 0.87 53.5881 153.149)" stroke="#FFA500" stroke-opacity="0.54" stroke-width="8"/>
<line y1="-4" x2="143.515" y2="-4" transform="matrix(0.823473 -0.567356 0.493051 0.87 6.09521 105.405)" stroke="#FFA500" stroke-opacity="0.26" stroke-width="8"/>
<line y1="-4" x2="143.515" y2="-4" transform="matrix(0.823473 -0.567356 0.493051 0.87 31.2385 142.368)" stroke="#FFA500" stroke-opacity="0.26" stroke-width="8"/>
<line y1="-4" x2="155.743" y2="-4" transform="matrix(0.823473 -0.567356 0.493051 0.87 11.6826 127.737)" stroke="#FFA500" stroke-opacity="0.54" stroke-width="8"/>
</svg>
