<svg width="151" height="22" viewBox="0 0 151 22" fill="none" xmlns="http://www.w3.org/2000/svg">
<path d="M10.3646 0.775454L7.5304 6.34334L1.18926 7.23909C0.052104 7.39889 -0.403625 8.75722 0.421028 9.53521L5.0087 13.8667L3.92363 19.9855C3.72832 21.0915 4.93058 21.92 5.93752 21.4027L11.6103 18.5136L17.283 21.4027C18.29 21.9158 19.4922 21.0915 19.2969 19.9855L18.2118 13.8667L22.7995 9.53521C23.6242 8.75722 23.1684 7.39889 22.0313 7.23909L15.6901 6.34334L12.8559 0.775454C12.3481 -0.21701 10.8768 -0.229626 10.3646 0.775454Z" fill="#FFA500"/>
<path d="M42.3646 0.775454L39.5304 6.34334L33.1893 7.23909C32.0521 7.39889 31.5964 8.75722 32.421 9.53521L37.0087 13.8667L35.9236 19.9855C35.7283 21.0915 36.9306 21.92 37.9375 21.4027L43.6103 18.5136L49.283 21.4027C50.29 21.9158 51.4922 21.0915 51.2969 19.9855L50.2118 13.8667L54.7995 9.53521C55.6242 8.75722 55.1684 7.39889 54.0313 7.23909L47.6901 6.34334L44.8559 0.775454C44.3481 -0.21701 42.8768 -0.229626 42.3646 0.775454Z" fill="#FFA500"/>
<path d="M73.3646 0.775454L70.5304 6.34334L64.1893 7.23909C63.0521 7.39889 62.5964 8.75722 63.421 9.53521L68.0087 13.8667L66.9236 19.9855C66.7283 21.0915 67.9306 21.92 68.9375 21.4027L74.6103 18.5136L80.283 21.4027C81.29 21.9158 82.4922 21.0915 82.2969 19.9855L81.2118 13.8667L85.7995 9.53521C86.6242 8.75722 86.1684 7.39889 85.0313 7.23909L78.6901 6.34334L75.8559 0.775454C75.3481 -0.21701 73.8768 -0.229626 73.3646 0.775454Z" fill="#FFA500"/>
<path d="M106.365 0.775454L103.53 6.34334L97.1893 7.23909C96.0521 7.39889 95.5964 8.75722 96.421 9.53521L101.009 13.8667L99.9236 19.9855C99.7283 21.0915 100.931 21.92 101.938 21.4027L107.61 18.5136L113.283 21.4027C114.29 21.9158 115.492 21.0915 115.297 19.9855L114.212 13.8667L118.799 9.53521C119.624 8.75722 119.168 7.39889 118.031 7.23909L111.69 6.34334L108.856 0.775454C108.348 -0.21701 106.877 -0.229626 106.365 0.775454Z" fill="#FFA500"/>
<path d="M137.365 0.775454L134.53 6.34334L128.189 7.23909C127.052 7.39889 126.596 8.75722 127.421 9.53521L132.009 13.8667L130.924 19.9855C130.728 21.0915 131.931 21.92 132.938 21.4027L138.61 18.5136L144.283 21.4027C145.29 21.9158 146.492 21.0915 146.297 19.9855L145.212 13.8667L149.799 9.53521C150.624 8.75722 150.168 7.39889 149.031 7.23909L142.69 6.34334L139.856 0.775454C139.348 -0.21701 137.877 -0.229626 137.365 0.775454Z" fill="#FFA500"/>
</svg>
