<svg width="169" height="142" viewBox="0 0 169 142" fill="none" xmlns="http://www.w3.org/2000/svg">
<circle cx="1.93302" cy="1.93302" r="1.93302" fill="#909597" fill-opacity="0.52"/>
<circle cx="15.188" cy="1.93302" r="1.93302" fill="#909597" fill-opacity="0.52"/>
<circle cx="29.5483" cy="1.93302" r="1.93302" fill="#909597" fill-opacity="0.52"/>
<circle cx="44.4584" cy="1.93302" r="1.93302" fill="#909597" fill-opacity="0.52"/>
<circle cx="60.4755" cy="1.93302" r="1.93302" fill="#909597" fill-opacity="0.52"/>
<circle cx="77.0435" cy="1.93302" r="1.93302" fill="#909597" fill-opacity="0.52"/>
<circle cx="91.9566" cy="1.93302" r="1.93302" fill="#909597" fill-opacity="0.52"/>
<circle cx="105.212" cy="1.93302" r="1.93302" fill="#909597" fill-opacity="0.52"/>
<circle cx="119.572" cy="1.93302" r="1.93302" fill="#909597" fill-opacity="0.52"/>
<circle cx="134.484" cy="1.93302" r="1.93302" fill="#909597" fill-opacity="0.52"/>
<circle cx="150.499" cy="1.93302" r="1.93302" fill="#909597" fill-opacity="0.52"/>
<circle cx="167.067" cy="1.93302" r="1.93302" fill="#909597" fill-opacity="0.52"/>
<circle cx="1.93302" cy="14.6313" r="1.93302" fill="#909597" fill-opacity="0.52"/>
<circle cx="15.188" cy="14.6313" r="1.93302" fill="#909597" fill-opacity="0.52"/>
<circle cx="29.5483" cy="14.6313" r="1.93302" fill="#909597" fill-opacity="0.52"/>
<circle cx="44.4584" cy="14.6313" r="1.93302" fill="#909597" fill-opacity="0.52"/>
<circle cx="60.4755" cy="14.6313" r="1.93302" fill="#909597" fill-opacity="0.52"/>
<circle cx="77.0435" cy="14.6313" r="1.93302" fill="#909597" fill-opacity="0.52"/>
<circle cx="91.9566" cy="14.6313" r="1.93302" fill="#909597" fill-opacity="0.52"/>
<circle cx="105.212" cy="14.6313" r="1.93302" fill="#909597" fill-opacity="0.52"/>
<circle cx="119.572" cy="14.6313" r="1.93302" fill="#909597" fill-opacity="0.52"/>
<circle cx="134.484" cy="14.6313" r="1.93302" fill="#909597" fill-opacity="0.52"/>
<circle cx="150.499" cy="14.6313" r="1.93302" fill="#909597" fill-opacity="0.52"/>
<circle cx="167.067" cy="14.6313" r="1.93302" fill="#909597" fill-opacity="0.52"/>
<circle cx="1.93302" cy="27.3296" r="1.93302" fill="#909597" fill-opacity="0.52"/>
<circle cx="15.188" cy="27.3296" r="1.93302" fill="#909597" fill-opacity="0.52"/>
<circle cx="29.5483" cy="27.3296" r="1.93302" fill="#909597" fill-opacity="0.52"/>
<circle cx="44.4584" cy="27.3296" r="1.93302" fill="#909597" fill-opacity="0.52"/>
<circle cx="60.4755" cy="27.3296" r="1.93302" fill="#909597" fill-opacity="0.52"/>
<circle cx="77.0435" cy="27.3296" r="1.93302" fill="#909597" fill-opacity="0.52"/>
<circle cx="91.9566" cy="27.3296" r="1.93302" fill="#909597" fill-opacity="0.52"/>
<circle cx="105.212" cy="27.3296" r="1.93302" fill="#909597" fill-opacity="0.52"/>
<circle cx="119.572" cy="27.3296" r="1.93302" fill="#909597" fill-opacity="0.52"/>
<circle cx="134.484" cy="27.3296" r="1.93302" fill="#909597" fill-opacity="0.52"/>
<circle cx="150.499" cy="27.3296" r="1.93302" fill="#909597" fill-opacity="0.52"/>
<circle cx="167.067" cy="27.3296" r="1.93302" fill="#909597" fill-opacity="0.52"/>
<circle cx="1.93302" cy="40.5939" r="1.93302" fill="#909597" fill-opacity="0.52"/>
<circle cx="15.188" cy="40.5939" r="1.93302" fill="#909597" fill-opacity="0.52"/>
<circle cx="29.5483" cy="40.5939" r="1.93302" fill="#909597" fill-opacity="0.52"/>
<circle cx="44.4584" cy="40.5939" r="1.93302" fill="#909597" fill-opacity="0.52"/>
<circle cx="60.4755" cy="40.5939" r="1.93302" fill="#909597" fill-opacity="0.52"/>
<circle cx="77.0435" cy="40.5939" r="1.93302" fill="#909597" fill-opacity="0.52"/>
<circle cx="91.9566" cy="40.5939" r="1.93302" fill="#909597" fill-opacity="0.52"/>
<circle cx="105.212" cy="40.5939" r="1.93302" fill="#909597" fill-opacity="0.52"/>
<circle cx="119.572" cy="40.5939" r="1.93302" fill="#909597" fill-opacity="0.52"/>
<circle cx="134.484" cy="40.5939" r="1.93302" fill="#909597" fill-opacity="0.52"/>
<circle cx="150.499" cy="40.5939" r="1.93302" fill="#909597" fill-opacity="0.52"/>
<circle cx="167.067" cy="40.5939" r="1.93302" fill="#909597" fill-opacity="0.52"/>
<circle cx="1.93302" cy="54.3882" r="1.93302" fill="#909597" fill-opacity="0.52"/>
<circle cx="15.188" cy="54.3882" r="1.93302" fill="#909597" fill-opacity="0.52"/>
<circle cx="29.5483" cy="54.3882" r="1.93302" fill="#909597" fill-opacity="0.52"/>
<circle cx="44.4584" cy="54.3882" r="1.93302" fill="#909597" fill-opacity="0.52"/>
<circle cx="60.4755" cy="54.3882" r="1.93302" fill="#909597" fill-opacity="0.52"/>
<circle cx="77.0435" cy="54.3882" r="1.93302" fill="#909597" fill-opacity="0.52"/>
<circle cx="91.9566" cy="54.3882" r="1.93302" fill="#909597" fill-opacity="0.52"/>
<circle cx="105.212" cy="54.3882" r="1.93302" fill="#909597" fill-opacity="0.52"/>
<circle cx="119.572" cy="54.3882" r="1.93302" fill="#909597" fill-opacity="0.52"/>
<circle cx="134.484" cy="54.3882" r="1.93302" fill="#909597" fill-opacity="0.52"/>
<circle cx="150.499" cy="54.3882" r="1.93302" fill="#909597" fill-opacity="0.52"/>
<circle cx="167.067" cy="54.3882" r="1.93302" fill="#909597" fill-opacity="0.52"/>
<circle cx="1.93302" cy="67.0876" r="1.93302" fill="#909597" fill-opacity="0.52"/>
<circle cx="15.188" cy="67.0876" r="1.93302" fill="#909597" fill-opacity="0.52"/>
<circle cx="29.5483" cy="67.0876" r="1.93302" fill="#909597" fill-opacity="0.52"/>
<circle cx="44.4584" cy="67.0876" r="1.93302" fill="#909597" fill-opacity="0.52"/>
<circle cx="60.4755" cy="67.0876" r="1.93302" fill="#909597" fill-opacity="0.52"/>
<circle cx="77.0435" cy="67.0876" r="1.93302" fill="#909597" fill-opacity="0.52"/>
<circle cx="91.9566" cy="67.0876" r="1.93302" fill="#909597" fill-opacity="0.52"/>
<circle cx="105.212" cy="67.0876" r="1.93302" fill="#909597" fill-opacity="0.52"/>
<circle cx="119.572" cy="67.0876" r="1.93302" fill="#909597" fill-opacity="0.52"/>
<circle cx="134.484" cy="67.0876" r="1.93302" fill="#909597" fill-opacity="0.52"/>
<circle cx="150.499" cy="67.0876" r="1.93302" fill="#909597" fill-opacity="0.52"/>
<circle cx="167.067" cy="67.0876" r="1.93302" fill="#909597" fill-opacity="0.52"/>
<circle cx="1.93302" cy="79.7926" r="1.93302" fill="#909597" fill-opacity="0.52"/>
<circle cx="15.188" cy="79.7926" r="1.93302" fill="#909597" fill-opacity="0.52"/>
<circle cx="29.5483" cy="79.7926" r="1.93302" fill="#909597" fill-opacity="0.52"/>
<circle cx="44.4584" cy="79.7926" r="1.93302" fill="#909597" fill-opacity="0.52"/>
<circle cx="60.4755" cy="79.7926" r="1.93302" fill="#909597" fill-opacity="0.52"/>
<circle cx="77.0435" cy="79.7926" r="1.93302" fill="#909597" fill-opacity="0.52"/>
<circle cx="91.9566" cy="79.7926" r="1.93302" fill="#909597" fill-opacity="0.52"/>
<circle cx="105.212" cy="79.7926" r="1.93302" fill="#909597" fill-opacity="0.52"/>
<circle cx="119.572" cy="79.7926" r="1.93302" fill="#909597" fill-opacity="0.52"/>
<circle cx="134.484" cy="79.7926" r="1.93302" fill="#909597" fill-opacity="0.52"/>
<circle cx="150.499" cy="79.7926" r="1.93302" fill="#909597" fill-opacity="0.52"/>
<circle cx="167.067" cy="79.7926" r="1.93302" fill="#909597" fill-opacity="0.52"/>
<circle cx="1.93302" cy="92.4992" r="1.93302" fill="#909597" fill-opacity="0.52"/>
<circle cx="15.188" cy="92.4992" r="1.93302" fill="#909597" fill-opacity="0.52"/>
<circle cx="29.5483" cy="92.4992" r="1.93302" fill="#909597" fill-opacity="0.52"/>
<circle cx="44.4584" cy="92.4992" r="1.93302" fill="#909597" fill-opacity="0.52"/>
<circle cx="60.4755" cy="92.4992" r="1.93302" fill="#909597" fill-opacity="0.52"/>
<circle cx="77.0435" cy="92.4992" r="1.93302" fill="#909597" fill-opacity="0.52"/>
<circle cx="91.9566" cy="92.4992" r="1.93302" fill="#909597" fill-opacity="0.52"/>
<circle cx="105.212" cy="92.4992" r="1.93302" fill="#909597" fill-opacity="0.52"/>
<circle cx="119.572" cy="92.4992" r="1.93302" fill="#909597" fill-opacity="0.52"/>
<circle cx="134.484" cy="92.4992" r="1.93302" fill="#909597" fill-opacity="0.52"/>
<circle cx="150.499" cy="92.4992" r="1.93302" fill="#909597" fill-opacity="0.52"/>
<circle cx="167.067" cy="92.4992" r="1.93302" fill="#909597" fill-opacity="0.52"/>
<circle cx="1.93302" cy="104.649" r="1.93302" fill="#909597" fill-opacity="0.52"/>
<circle cx="15.188" cy="104.649" r="1.93302" fill="#909597" fill-opacity="0.52"/>
<circle cx="29.5483" cy="104.649" r="1.93302" fill="#909597" fill-opacity="0.52"/>
<circle cx="44.4584" cy="104.649" r="1.93302" fill="#909597" fill-opacity="0.52"/>
<circle cx="60.4755" cy="104.649" r="1.93302" fill="#909597" fill-opacity="0.52"/>
<circle cx="77.0435" cy="104.649" r="1.93302" fill="#909597" fill-opacity="0.52"/>
<circle cx="91.9566" cy="104.649" r="1.93302" fill="#909597" fill-opacity="0.52"/>
<circle cx="105.212" cy="104.649" r="1.93302" fill="#909597" fill-opacity="0.52"/>
<circle cx="119.572" cy="104.649" r="1.93302" fill="#909597" fill-opacity="0.52"/>
<circle cx="134.484" cy="104.649" r="1.93302" fill="#909597" fill-opacity="0.52"/>
<circle cx="150.499" cy="104.649" r="1.93302" fill="#909597" fill-opacity="0.52"/>
<circle cx="167.067" cy="104.649" r="1.93302" fill="#909597" fill-opacity="0.52"/>
<circle cx="1.93302" cy="115.694" r="1.93302" fill="#909597" fill-opacity="0.52"/>
<circle cx="15.188" cy="115.694" r="1.93302" fill="#909597" fill-opacity="0.52"/>
<circle cx="29.5483" cy="115.694" r="1.93302" fill="#909597" fill-opacity="0.52"/>
<circle cx="44.4584" cy="115.694" r="1.93302" fill="#909597" fill-opacity="0.52"/>
<circle cx="60.4755" cy="115.694" r="1.93302" fill="#909597" fill-opacity="0.52"/>
<circle cx="77.0435" cy="115.694" r="1.93302" fill="#909597" fill-opacity="0.52"/>
<circle cx="91.9566" cy="115.694" r="1.93302" fill="#909597" fill-opacity="0.52"/>
<circle cx="105.212" cy="115.694" r="1.93302" fill="#909597" fill-opacity="0.52"/>
<circle cx="119.572" cy="115.694" r="1.93302" fill="#909597" fill-opacity="0.52"/>
<circle cx="134.484" cy="115.694" r="1.93302" fill="#909597" fill-opacity="0.52"/>
<circle cx="150.499" cy="115.694" r="1.93302" fill="#909597" fill-opacity="0.52"/>
<circle cx="167.067" cy="115.694" r="1.93302" fill="#909597" fill-opacity="0.52"/>
<circle cx="1.93302" cy="127.852" r="1.93302" fill="#909597" fill-opacity="0.52"/>
<circle cx="15.188" cy="127.852" r="1.93302" fill="#909597" fill-opacity="0.52"/>
<circle cx="29.5483" cy="127.852" r="1.93302" fill="#909597" fill-opacity="0.52"/>
<circle cx="44.4584" cy="127.852" r="1.93302" fill="#909597" fill-opacity="0.52"/>
<circle cx="60.4755" cy="127.852" r="1.93302" fill="#909597" fill-opacity="0.52"/>
<circle cx="77.0435" cy="127.852" r="1.93302" fill="#909597" fill-opacity="0.52"/>
<circle cx="91.9566" cy="127.852" r="1.93302" fill="#909597" fill-opacity="0.52"/>
<circle cx="105.212" cy="127.852" r="1.93302" fill="#909597" fill-opacity="0.52"/>
<circle cx="119.572" cy="127.852" r="1.93302" fill="#909597" fill-opacity="0.52"/>
<circle cx="134.484" cy="127.852" r="1.93302" fill="#909597" fill-opacity="0.52"/>
<circle cx="150.499" cy="127.852" r="1.93302" fill="#909597" fill-opacity="0.52"/>
<circle cx="167.067" cy="127.852" r="1.93302" fill="#909597" fill-opacity="0.52"/>
<circle cx="1.93302" cy="140.017" r="1.93302" fill="#909597" fill-opacity="0.52"/>
<circle cx="15.188" cy="140.017" r="1.93302" fill="#909597" fill-opacity="0.52"/>
<circle cx="29.5483" cy="140.017" r="1.93302" fill="#909597" fill-opacity="0.52"/>
<circle cx="44.4584" cy="140.017" r="1.93302" fill="#909597" fill-opacity="0.52"/>
<circle cx="60.4755" cy="140.017" r="1.93302" fill="#909597" fill-opacity="0.52"/>
<circle cx="77.0436" cy="140.017" r="1.93302" fill="#909597" fill-opacity="0.52"/>
<circle cx="91.9566" cy="140.017" r="1.93302" fill="#909597" fill-opacity="0.52"/>
<circle cx="105.212" cy="140.017" r="1.93302" fill="#909597" fill-opacity="0.52"/>
<circle cx="119.572" cy="140.017" r="1.93302" fill="#909597" fill-opacity="0.52"/>
<circle cx="134.484" cy="140.017" r="1.93302" fill="#909597" fill-opacity="0.52"/>
<circle cx="150.499" cy="140.017" r="1.93302" fill="#909597" fill-opacity="0.52"/>
<circle cx="167.067" cy="140.017" r="1.93302" fill="#909597" fill-opacity="0.52"/>
</svg>
