<svg width="154" height="157" viewBox="0 0 154 157" fill="none" xmlns="http://www.w3.org/2000/svg">
<line y1="-4" x2="48.5721" y2="-4" transform="matrix(0.823473 -0.567356 0.493051 0.87 16.5717 34.5576)" stroke="#C1C4C6" stroke-opacity="0.54" stroke-width="8"/>
<line y1="-4" x2="48.5721" y2="-4" transform="matrix(0.823473 -0.567356 0.493051 0.87 107.367 157)" stroke="#C1C4C6" stroke-opacity="0.54" stroke-width="8"/>
<line y1="-4" x2="90.2895" y2="-4" transform="matrix(0.823473 -0.567356 0.493051 0.87 8.88892 59.9702)" stroke="#ADB1B8" stroke-width="8"/>
<line y1="-4" x2="90.2895" y2="-4" transform="matrix(0.823473 -0.567356 0.493051 0.87 77.3345 156.23)" stroke="#ADB1B8" stroke-width="8"/>
<line y1="-4" x2="121.937" y2="-4" transform="matrix(0.823473 -0.567356 0.493051 0.87 4 83.0725)" stroke="#C1C4C6" stroke-opacity="0.54" stroke-width="8"/>
<line y1="-4" x2="121.937" y2="-4" transform="matrix(0.823473 -0.567356 0.493051 0.87 53.5881 153.15)" stroke="#C1C4C6" stroke-opacity="0.54" stroke-width="8"/>
<line y1="-4" x2="143.515" y2="-4" transform="matrix(0.823473 -0.567356 0.493051 0.87 6.09528 105.405)" stroke="#ADB1B8" stroke-width="8"/>
<line y1="-4" x2="143.515" y2="-4" transform="matrix(0.823473 -0.567356 0.493051 0.87 31.2385 142.368)" stroke="#ADB1B8" stroke-width="8"/>
<line y1="-4" x2="155.743" y2="-4" transform="matrix(0.823473 -0.567356 0.493051 0.87 11.6826 127.737)" stroke="#C1C4C6" stroke-opacity="0.54" stroke-width="8"/>
</svg>
