<svg width="248" height="209" viewBox="0 0 248 209" fill="none" xmlns="http://www.w3.org/2000/svg">
<circle cx="2.83657" cy="2.83657" r="2.83657" fill="#FFA500" fill-opacity="0.52"/>
<circle cx="22.2876" cy="2.83657" r="2.83657" fill="#FFA500" fill-opacity="0.52"/>
<circle cx="43.3592" cy="2.83657" r="2.83657" fill="#FFA500" fill-opacity="0.52"/>
<circle cx="65.2406" cy="2.83657" r="2.83657" fill="#FFA500" fill-opacity="0.52"/>
<circle cx="88.7442" cy="2.83657" r="2.83657" fill="#FFA500" fill-opacity="0.52"/>
<circle cx="113.057" cy="2.83657" r="2.83657" fill="#FFA500" fill-opacity="0.52"/>
<circle cx="134.94" cy="2.83657" r="2.83657" fill="#FFA500" fill-opacity="0.52"/>
<circle cx="154.392" cy="2.83657" r="2.83657" fill="#FFA500" fill-opacity="0.52"/>
<circle cx="175.464" cy="2.83657" r="2.83657" fill="#FFA500" fill-opacity="0.52"/>
<circle cx="197.345" cy="2.83657" r="2.83657" fill="#FFA500" fill-opacity="0.52"/>
<circle cx="220.849" cy="2.83657" r="2.83657" fill="#FFA500" fill-opacity="0.52"/>
<circle cx="245.163" cy="2.83657" r="2.83657" fill="#FFA500" fill-opacity="0.52"/>
<circle cx="2.83657" cy="21.4752" r="2.83657" fill="#FFA500" fill-opacity="0.52"/>
<circle cx="22.2876" cy="21.4752" r="2.83657" fill="#FFA500" fill-opacity="0.52"/>
<circle cx="43.3592" cy="21.4752" r="2.83657" fill="#FFA500" fill-opacity="0.52"/>
<circle cx="65.2406" cy="21.4752" r="2.83657" fill="#FFA500" fill-opacity="0.52"/>
<circle cx="88.7442" cy="21.4752" r="2.83657" fill="#FFA500" fill-opacity="0.52"/>
<circle cx="113.057" cy="21.4752" r="2.83657" fill="#FFA500" fill-opacity="0.52"/>
<circle cx="134.94" cy="21.4752" r="2.83657" fill="#FFA500" fill-opacity="0.52"/>
<circle cx="154.392" cy="21.4752" r="2.83657" fill="#FFA500" fill-opacity="0.52"/>
<circle cx="175.464" cy="21.4752" r="2.83657" fill="#FFA500" fill-opacity="0.52"/>
<circle cx="197.345" cy="21.4752" r="2.83657" fill="#FFA500" fill-opacity="0.52"/>
<circle cx="220.849" cy="21.4752" r="2.83657" fill="#FFA500" fill-opacity="0.52"/>
<circle cx="245.163" cy="21.4752" r="2.83657" fill="#FFA500" fill-opacity="0.52"/>
<circle cx="2.83657" cy="40.1139" r="2.83657" fill="#FFA500" fill-opacity="0.52"/>
<circle cx="22.2876" cy="40.1139" r="2.83657" fill="#FFA500" fill-opacity="0.52"/>
<circle cx="43.3592" cy="40.1139" r="2.83657" fill="#FFA500" fill-opacity="0.52"/>
<circle cx="65.2406" cy="40.1139" r="2.83657" fill="#FFA500" fill-opacity="0.52"/>
<circle cx="88.7442" cy="40.1139" r="2.83657" fill="#FFA500" fill-opacity="0.52"/>
<circle cx="113.057" cy="40.1139" r="2.83657" fill="#FFA500" fill-opacity="0.52"/>
<circle cx="134.94" cy="40.1139" r="2.83657" fill="#FFA500" fill-opacity="0.52"/>
<circle cx="154.392" cy="40.1139" r="2.83657" fill="#FFA500" fill-opacity="0.52"/>
<circle cx="175.464" cy="40.1139" r="2.83657" fill="#FFA500" fill-opacity="0.52"/>
<circle cx="197.345" cy="40.1139" r="2.83657" fill="#FFA500" fill-opacity="0.52"/>
<circle cx="220.849" cy="40.1139" r="2.83657" fill="#FFA500" fill-opacity="0.52"/>
<circle cx="245.163" cy="40.1139" r="2.83657" fill="#FFA500" fill-opacity="0.52"/>
<circle cx="2.83657" cy="59.5685" r="2.83657" fill="#FFA500" fill-opacity="0.52"/>
<circle cx="22.2876" cy="59.5685" r="2.83657" fill="#FFA500" fill-opacity="0.52"/>
<circle cx="43.3592" cy="59.5685" r="2.83657" fill="#FFA500" fill-opacity="0.52"/>
<circle cx="65.2406" cy="59.5685" r="2.83657" fill="#FFA500" fill-opacity="0.52"/>
<circle cx="88.7442" cy="59.5685" r="2.83657" fill="#FFA500" fill-opacity="0.52"/>
<circle cx="113.057" cy="59.5685" r="2.83657" fill="#FFA500" fill-opacity="0.52"/>
<circle cx="134.94" cy="59.5685" r="2.83657" fill="#FFA500" fill-opacity="0.52"/>
<circle cx="154.392" cy="59.5685" r="2.83657" fill="#FFA500" fill-opacity="0.52"/>
<circle cx="175.464" cy="59.5685" r="2.83657" fill="#FFA500" fill-opacity="0.52"/>
<circle cx="197.345" cy="59.5685" r="2.83657" fill="#FFA500" fill-opacity="0.52"/>
<circle cx="220.849" cy="59.5685" r="2.83657" fill="#FFA500" fill-opacity="0.52"/>
<circle cx="245.163" cy="59.5685" r="2.83657" fill="#FFA500" fill-opacity="0.52"/>
<circle cx="2.83657" cy="79.8253" r="2.83657" fill="#FFA500" fill-opacity="0.52"/>
<circle cx="22.2876" cy="79.8253" r="2.83657" fill="#FFA500" fill-opacity="0.52"/>
<circle cx="43.3592" cy="79.8253" r="2.83657" fill="#FFA500" fill-opacity="0.52"/>
<circle cx="65.2406" cy="79.8253" r="2.83657" fill="#FFA500" fill-opacity="0.52"/>
<circle cx="88.7442" cy="79.8253" r="2.83657" fill="#FFA500" fill-opacity="0.52"/>
<circle cx="113.057" cy="79.8253" r="2.83657" fill="#FFA500" fill-opacity="0.52"/>
<circle cx="134.94" cy="79.8253" r="2.83657" fill="#FFA500" fill-opacity="0.52"/>
<circle cx="154.392" cy="79.8253" r="2.83657" fill="#FFA500" fill-opacity="0.52"/>
<circle cx="175.464" cy="79.8253" r="2.83657" fill="#FFA500" fill-opacity="0.52"/>
<circle cx="197.345" cy="79.8253" r="2.83657" fill="#FFA500" fill-opacity="0.52"/>
<circle cx="220.849" cy="79.8253" r="2.83657" fill="#FFA500" fill-opacity="0.52"/>
<circle cx="245.163" cy="79.8253" r="2.83657" fill="#FFA500" fill-opacity="0.52"/>
<circle cx="2.83657" cy="98.4694" r="2.83657" fill="#FFA500" fill-opacity="0.52"/>
<circle cx="22.2876" cy="98.4694" r="2.83657" fill="#FFA500" fill-opacity="0.52"/>
<circle cx="43.3592" cy="98.4694" r="2.83657" fill="#FFA500" fill-opacity="0.52"/>
<circle cx="65.2406" cy="98.4694" r="2.83657" fill="#FFA500" fill-opacity="0.52"/>
<circle cx="88.7442" cy="98.4694" r="2.83657" fill="#FFA500" fill-opacity="0.52"/>
<circle cx="113.057" cy="98.4694" r="2.83657" fill="#FFA500" fill-opacity="0.52"/>
<circle cx="134.94" cy="98.4694" r="2.83657" fill="#FFA500" fill-opacity="0.52"/>
<circle cx="154.392" cy="98.4694" r="2.83657" fill="#FFA500" fill-opacity="0.52"/>
<circle cx="175.464" cy="98.4694" r="2.83657" fill="#FFA500" fill-opacity="0.52"/>
<circle cx="197.345" cy="98.4694" r="2.83657" fill="#FFA500" fill-opacity="0.52"/>
<circle cx="220.849" cy="98.4694" r="2.83657" fill="#FFA500" fill-opacity="0.52"/>
<circle cx="245.163" cy="98.4694" r="2.83657" fill="#FFA500" fill-opacity="0.52"/>
<circle cx="2.83657" cy="117.113" r="2.83657" fill="#FFA500" fill-opacity="0.52"/>
<circle cx="22.2876" cy="117.113" r="2.83657" fill="#FFA500" fill-opacity="0.52"/>
<circle cx="43.3592" cy="117.113" r="2.83657" fill="#FFA500" fill-opacity="0.52"/>
<circle cx="65.2406" cy="117.113" r="2.83657" fill="#FFA500" fill-opacity="0.52"/>
<circle cx="88.7442" cy="117.113" r="2.83657" fill="#FFA500" fill-opacity="0.52"/>
<circle cx="113.057" cy="117.113" r="2.83657" fill="#FFA500" fill-opacity="0.52"/>
<circle cx="134.94" cy="117.113" r="2.83657" fill="#FFA500" fill-opacity="0.52"/>
<circle cx="154.392" cy="117.113" r="2.83657" fill="#FFA500" fill-opacity="0.52"/>
<circle cx="175.464" cy="117.113" r="2.83657" fill="#FFA500" fill-opacity="0.52"/>
<circle cx="197.345" cy="117.113" r="2.83657" fill="#FFA500" fill-opacity="0.52"/>
<circle cx="220.849" cy="117.113" r="2.83657" fill="#FFA500" fill-opacity="0.52"/>
<circle cx="245.163" cy="117.113" r="2.83657" fill="#FFA500" fill-opacity="0.52"/>
<circle cx="2.83657" cy="135.752" r="2.83657" fill="#FFA500" fill-opacity="0.52"/>
<circle cx="22.2876" cy="135.752" r="2.83657" fill="#FFA500" fill-opacity="0.52"/>
<circle cx="43.3592" cy="135.752" r="2.83657" fill="#FFA500" fill-opacity="0.52"/>
<circle cx="65.2406" cy="135.752" r="2.83657" fill="#FFA500" fill-opacity="0.52"/>
<circle cx="88.7442" cy="135.752" r="2.83657" fill="#FFA500" fill-opacity="0.52"/>
<circle cx="113.057" cy="135.752" r="2.83657" fill="#FFA500" fill-opacity="0.52"/>
<circle cx="134.94" cy="135.752" r="2.83657" fill="#FFA500" fill-opacity="0.52"/>
<circle cx="154.392" cy="135.752" r="2.83657" fill="#FFA500" fill-opacity="0.52"/>
<circle cx="175.464" cy="135.752" r="2.83657" fill="#FFA500" fill-opacity="0.52"/>
<circle cx="197.345" cy="135.752" r="2.83657" fill="#FFA500" fill-opacity="0.52"/>
<circle cx="220.849" cy="135.752" r="2.83657" fill="#FFA500" fill-opacity="0.52"/>
<circle cx="245.163" cy="135.752" r="2.83657" fill="#FFA500" fill-opacity="0.52"/>
<circle cx="2.83657" cy="153.578" r="2.83657" fill="#FFA500" fill-opacity="0.52"/>
<circle cx="22.2876" cy="153.578" r="2.83657" fill="#FFA500" fill-opacity="0.52"/>
<circle cx="43.3592" cy="153.578" r="2.83657" fill="#FFA500" fill-opacity="0.52"/>
<circle cx="65.2406" cy="153.578" r="2.83657" fill="#FFA500" fill-opacity="0.52"/>
<circle cx="88.7442" cy="153.578" r="2.83657" fill="#FFA500" fill-opacity="0.52"/>
<circle cx="113.057" cy="153.578" r="2.83657" fill="#FFA500" fill-opacity="0.52"/>
<circle cx="134.94" cy="153.578" r="2.83657" fill="#FFA500" fill-opacity="0.52"/>
<circle cx="154.392" cy="153.578" r="2.83657" fill="#FFA500" fill-opacity="0.52"/>
<circle cx="175.464" cy="153.578" r="2.83657" fill="#FFA500" fill-opacity="0.52"/>
<circle cx="197.345" cy="153.578" r="2.83657" fill="#FFA500" fill-opacity="0.52"/>
<circle cx="220.849" cy="153.578" r="2.83657" fill="#FFA500" fill-opacity="0.52"/>
<circle cx="245.163" cy="153.578" r="2.83657" fill="#FFA500" fill-opacity="0.52"/>
<circle cx="2.83657" cy="169.793" r="2.83657" fill="#FFA500" fill-opacity="0.52"/>
<circle cx="22.2876" cy="169.793" r="2.83657" fill="#FFA500" fill-opacity="0.52"/>
<circle cx="43.3592" cy="169.793" r="2.83657" fill="#FFA500" fill-opacity="0.52"/>
<circle cx="65.2406" cy="169.793" r="2.83657" fill="#FFA500" fill-opacity="0.52"/>
<circle cx="88.7442" cy="169.793" r="2.83657" fill="#FFA500" fill-opacity="0.52"/>
<circle cx="113.057" cy="169.793" r="2.83657" fill="#FFA500" fill-opacity="0.52"/>
<circle cx="134.94" cy="169.793" r="2.83657" fill="#FFA500" fill-opacity="0.52"/>
<circle cx="154.392" cy="169.793" r="2.83657" fill="#FFA500" fill-opacity="0.52"/>
<circle cx="175.464" cy="169.793" r="2.83657" fill="#FFA500" fill-opacity="0.52"/>
<circle cx="197.345" cy="169.793" r="2.83657" fill="#FFA500" fill-opacity="0.52"/>
<circle cx="220.849" cy="169.793" r="2.83657" fill="#FFA500" fill-opacity="0.52"/>
<circle cx="245.163" cy="169.793" r="2.83657" fill="#FFA500" fill-opacity="0.52"/>
<circle cx="2.83657" cy="187.618" r="2.83657" fill="#FFA500" fill-opacity="0.52"/>
<circle cx="22.2876" cy="187.618" r="2.83657" fill="#FFA500" fill-opacity="0.52"/>
<circle cx="43.3592" cy="187.618" r="2.83657" fill="#FFA500" fill-opacity="0.52"/>
<circle cx="65.2406" cy="187.618" r="2.83657" fill="#FFA500" fill-opacity="0.52"/>
<circle cx="88.7442" cy="187.618" r="2.83657" fill="#FFA500" fill-opacity="0.52"/>
<circle cx="113.057" cy="187.618" r="2.83657" fill="#FFA500" fill-opacity="0.52"/>
<circle cx="134.94" cy="187.618" r="2.83657" fill="#FFA500" fill-opacity="0.52"/>
<circle cx="154.392" cy="187.618" r="2.83657" fill="#FFA500" fill-opacity="0.52"/>
<circle cx="175.464" cy="187.618" r="2.83657" fill="#FFA500" fill-opacity="0.52"/>
<circle cx="197.345" cy="187.618" r="2.83657" fill="#FFA500" fill-opacity="0.52"/>
<circle cx="220.849" cy="187.618" r="2.83657" fill="#FFA500" fill-opacity="0.52"/>
<circle cx="245.163" cy="187.618" r="2.83657" fill="#FFA500" fill-opacity="0.52"/>
<circle cx="2.83657" cy="205.453" r="2.83657" fill="#FFA500" fill-opacity="0.52"/>
<circle cx="22.2876" cy="205.453" r="2.83657" fill="#FFA500" fill-opacity="0.52"/>
<circle cx="43.3592" cy="205.453" r="2.83657" fill="#FFA500" fill-opacity="0.52"/>
<circle cx="65.2406" cy="205.453" r="2.83657" fill="#FFA500" fill-opacity="0.52"/>
<circle cx="88.7442" cy="205.453" r="2.83657" fill="#FFA500" fill-opacity="0.52"/>
<circle cx="113.057" cy="205.453" r="2.83657" fill="#FFA500" fill-opacity="0.52"/>
<circle cx="134.94" cy="205.453" r="2.83657" fill="#FFA500" fill-opacity="0.52"/>
<circle cx="154.392" cy="205.453" r="2.83657" fill="#FFA500" fill-opacity="0.52"/>
<circle cx="175.464" cy="205.453" r="2.83657" fill="#FFA500" fill-opacity="0.52"/>
<circle cx="197.345" cy="205.453" r="2.83657" fill="#FFA500" fill-opacity="0.52"/>
<circle cx="220.849" cy="205.453" r="2.83657" fill="#FFA500" fill-opacity="0.52"/>
<circle cx="245.163" cy="205.453" r="2.83657" fill="#FFA500" fill-opacity="0.52"/>
</svg>
