<svg width="150" height="150" viewBox="0 0 150 150" fill="none" xmlns="http://www.w3.org/2000/svg">
<ellipse cx="5.66038" cy="6.30252" rx="5.66038" ry="6.30252" fill="#F1F3F4"/>
<path d="M9.32076 6.30252C9.32076 8.8863 7.48523 10.605 5.66038 10.605C3.83553 10.605 2 8.8863 2 6.30252C2 3.71874 3.83553 2 5.66038 2C7.48523 2 9.32076 3.71874 9.32076 6.30252Z" stroke="#9494A1" stroke-opacity="0.52" stroke-width="4"/>
<ellipse cx="24.3396" cy="6.30252" rx="5.66038" ry="6.30252" fill="#F1F3F4"/>
<path d="M28 6.30252C28 8.8863 26.1645 10.605 24.3396 10.605C22.5148 10.605 20.6793 8.8863 20.6793 6.30252C20.6793 3.71874 22.5148 2 24.3396 2C26.1645 2 28 3.71874 28 6.30252Z" stroke="#9494A1" stroke-opacity="0.52" stroke-width="4"/>
<ellipse cx="44.1509" cy="6.30252" rx="5.66038" ry="6.30252" fill="#F1F3F4"/>
<path d="M47.8113 6.30252C47.8113 8.8863 45.9758 10.605 44.1509 10.605C42.3261 10.605 40.4905 8.8863 40.4905 6.30252C40.4905 3.71874 42.3261 2 44.1509 2C45.9758 2 47.8113 3.71874 47.8113 6.30252Z" stroke="#FFA500" stroke-opacity="0.52" stroke-width="4"/>
<ellipse cx="62.8302" cy="6.30252" rx="5.66038" ry="6.30252" fill="#F1F3F4"/>
<path d="M66.4906 6.30252C66.4906 8.8863 64.655 10.605 62.8302 10.605C61.0053 10.605 59.1698 8.8863 59.1698 6.30252C59.1698 3.71874 61.0053 2 62.8302 2C64.655 2 66.4906 3.71874 66.4906 6.30252Z" stroke="#9494A1" stroke-opacity="0.52" stroke-width="4"/>
<ellipse cx="82.6415" cy="6.30252" rx="5.66038" ry="6.30252" fill="#F1F3F4"/>
<path d="M86.3019 6.30252C86.3019 8.8863 84.4664 10.605 82.6415 10.605C80.8167 10.605 78.9811 8.8863 78.9811 6.30252C78.9811 3.71874 80.8167 2 82.6415 2C84.4664 2 86.3019 3.71874 86.3019 6.30252Z" stroke="#9494A1" stroke-opacity="0.52" stroke-width="4"/>
<ellipse cx="103.585" cy="6.30252" rx="5.66038" ry="6.30252" fill="#F1F3F4"/>
<path d="M107.245 6.30252C107.245 8.8863 105.41 10.605 103.585 10.605C101.76 10.605 99.9246 8.8863 99.9246 6.30252C99.9246 3.71874 101.76 2 103.585 2C105.41 2 107.245 3.71874 107.245 6.30252Z" stroke="#9494A1" stroke-opacity="0.52" stroke-width="4"/>
<ellipse cx="123.396" cy="6.30252" rx="5.66038" ry="6.30252" fill="#F1F3F4"/>
<path d="M127.057 6.30252C127.057 8.8863 125.221 10.605 123.396 10.605C121.571 10.605 119.736 8.8863 119.736 6.30252C119.736 3.71874 121.571 2 123.396 2C125.221 2 127.057 3.71874 127.057 6.30252Z" stroke="#FFA500" stroke-opacity="0.52" stroke-width="4"/>
<ellipse cx="144.34" cy="6.30252" rx="5.66038" ry="6.30252" fill="#F1F3F4"/>
<path d="M148 6.30252C148 8.8863 146.164 10.605 144.34 10.605C142.515 10.605 140.679 8.8863 140.679 6.30252C140.679 3.71874 142.515 2 144.34 2C146.164 2 148 3.71874 148 6.30252Z" stroke="#9494A1" stroke-opacity="0.52" stroke-width="4"/>
<ellipse cx="5.66038" cy="25.8406" rx="5.66038" ry="6.30252" fill="#F1F3F4"/>
<path d="M9.32076 25.8406C9.32076 28.4244 7.48523 30.1431 5.66038 30.1431C3.83553 30.1431 2 28.4244 2 25.8406C2 23.2568 3.83553 21.5381 5.66038 21.5381C7.48523 21.5381 9.32076 23.2568 9.32076 25.8406Z" stroke="#FFA500" stroke-opacity="0.52" stroke-width="4"/>
<ellipse cx="24.3396" cy="25.8406" rx="5.66038" ry="6.30252" fill="#F1F3F4"/>
<path d="M28 25.8406C28 28.4244 26.1645 30.1431 24.3396 30.1431C22.5148 30.1431 20.6792 28.4244 20.6792 25.8406C20.6792 23.2568 22.5148 21.5381 24.3396 21.5381C26.1645 21.5381 28 23.2568 28 25.8406Z" stroke="#9494A1" stroke-opacity="0.52" stroke-width="4"/>
<ellipse cx="44.1509" cy="25.8406" rx="5.66038" ry="6.30252" fill="#F1F3F4"/>
<path d="M47.8113 25.8406C47.8113 28.4244 45.9758 30.1431 44.1509 30.1431C42.3261 30.1431 40.4905 28.4244 40.4905 25.8406C40.4905 23.2568 42.3261 21.5381 44.1509 21.5381C45.9758 21.5381 47.8113 23.2568 47.8113 25.8406Z" stroke="#9494A1" stroke-opacity="0.52" stroke-width="4"/>
<ellipse cx="62.8302" cy="25.8406" rx="5.66038" ry="6.30252" fill="#F1F3F4"/>
<path d="M66.4906 25.8406C66.4906 28.4244 64.655 30.1431 62.8302 30.1431C61.0053 30.1431 59.1698 28.4244 59.1698 25.8406C59.1698 23.2568 61.0053 21.5381 62.8302 21.5381C64.655 21.5381 66.4906 23.2568 66.4906 25.8406Z" stroke="#9494A1" stroke-opacity="0.52" stroke-width="4"/>
<ellipse cx="82.6415" cy="25.8406" rx="5.66038" ry="6.30252" fill="#F1F3F4"/>
<path d="M86.3019 25.8406C86.3019 28.4244 84.4664 30.1431 82.6415 30.1431C80.8167 30.1431 78.9811 28.4244 78.9811 25.8406C78.9811 23.2568 80.8167 21.5381 82.6415 21.5381C84.4664 21.5381 86.3019 23.2568 86.3019 25.8406Z" stroke="#FFA500" stroke-opacity="0.52" stroke-width="4"/>
<ellipse cx="103.585" cy="25.8406" rx="5.66038" ry="6.30252" fill="#F1F3F4"/>
<path d="M107.245 25.8406C107.245 28.4244 105.41 30.1431 103.585 30.1431C101.76 30.1431 99.9245 28.4244 99.9245 25.8406C99.9245 23.2568 101.76 21.5381 103.585 21.5381C105.41 21.5381 107.245 23.2568 107.245 25.8406Z" stroke="#9494A1" stroke-opacity="0.52" stroke-width="4"/>
<ellipse cx="123.396" cy="25.8406" rx="5.66038" ry="6.30252" fill="#F1F3F4"/>
<path d="M127.057 25.8406C127.057 28.4244 125.221 30.1431 123.396 30.1431C121.571 30.1431 119.736 28.4244 119.736 25.8406C119.736 23.2568 121.571 21.5381 123.396 21.5381C125.221 21.5381 127.057 23.2568 127.057 25.8406Z" stroke="#9494A1" stroke-opacity="0.52" stroke-width="4"/>
<ellipse cx="144.34" cy="25.8406" rx="5.66038" ry="6.30252" fill="#F1F3F4"/>
<path d="M148 25.8406C148 28.4244 146.164 30.1431 144.34 30.1431C142.515 30.1431 140.679 28.4244 140.679 25.8406C140.679 23.2568 142.515 21.5381 144.34 21.5381C146.164 21.5381 148 23.2568 148 25.8406Z" stroke="#9494A1" stroke-opacity="0.52" stroke-width="4"/>
<ellipse cx="5.66038" cy="46.0086" rx="5.66038" ry="6.30252" fill="#F1F3F4"/>
<path d="M9.32076 46.0086C9.32076 48.5924 7.48523 50.3111 5.66038 50.3111C3.83553 50.3111 2 48.5924 2 46.0086C2 43.4248 3.83553 41.7061 5.66038 41.7061C7.48523 41.7061 9.32076 43.4248 9.32076 46.0086Z" stroke="#9494A1" stroke-opacity="0.52" stroke-width="4"/>
<ellipse cx="24.3396" cy="46.0086" rx="5.66038" ry="6.30252" fill="#F1F3F4"/>
<path d="M29 46.0086C29 49.0409 26.8151 51.3111 24.3396 51.3111C21.8641 51.3111 19.6792 49.0409 19.6792 46.0086C19.6792 42.9763 21.8641 40.7061 24.3396 40.7061C26.8151 40.7061 29 42.9763 29 46.0086Z" stroke="#9494A1" stroke-opacity="0.52" stroke-width="2"/>
<ellipse cx="44.1509" cy="46.0086" rx="5.66038" ry="6.30252" fill="#F1F3F4"/>
<path d="M47.8113 46.0086C47.8113 48.5924 45.9758 50.3111 44.1509 50.3111C42.3261 50.3111 40.4905 48.5924 40.4905 46.0086C40.4905 43.4248 42.3261 41.7061 44.1509 41.7061C45.9758 41.7061 47.8113 43.4248 47.8113 46.0086Z" stroke="#9494A1" stroke-opacity="0.52" stroke-width="4"/>
<ellipse cx="62.8302" cy="46.0086" rx="5.66038" ry="6.30252" fill="#F1F3F4"/>
<path d="M66.4906 46.0086C66.4906 48.5924 64.655 50.3111 62.8302 50.3111C61.0053 50.3111 59.1698 48.5924 59.1698 46.0086C59.1698 43.4248 61.0053 41.7061 62.8302 41.7061C64.655 41.7061 66.4906 43.4248 66.4906 46.0086Z" stroke="#FFA500" stroke-opacity="0.52" stroke-width="4"/>
<ellipse cx="82.6415" cy="46.0086" rx="5.66038" ry="6.30252" fill="#F1F3F4"/>
<path d="M86.3019 46.0086C86.3019 48.5924 84.4664 50.3111 82.6415 50.3111C80.8167 50.3111 78.9811 48.5924 78.9811 46.0086C78.9811 43.4248 80.8167 41.7061 82.6415 41.7061C84.4664 41.7061 86.3019 43.4248 86.3019 46.0086Z" stroke="#9494A1" stroke-opacity="0.52" stroke-width="4"/>
<ellipse cx="103.585" cy="46.0086" rx="5.66038" ry="6.30252" fill="#F1F3F4"/>
<path d="M108.245 46.0086C108.245 49.0409 106.06 51.3111 103.585 51.3111C101.109 51.3111 98.9245 49.0409 98.9245 46.0086C98.9245 42.9763 101.109 40.7061 103.585 40.7061C106.06 40.7061 108.245 42.9763 108.245 46.0086Z" stroke="#9494A1" stroke-opacity="0.52" stroke-width="2"/>
<ellipse cx="123.396" cy="46.0086" rx="5.66038" ry="6.30252" fill="#F1F3F4"/>
<path d="M127.057 46.0086C127.057 48.5924 125.221 50.3111 123.396 50.3111C121.571 50.3111 119.736 48.5924 119.736 46.0086C119.736 43.4248 121.571 41.7061 123.396 41.7061C125.221 41.7061 127.057 43.4248 127.057 46.0086Z" stroke="#9494A1" stroke-opacity="0.52" stroke-width="4"/>
<ellipse cx="144.34" cy="46.0086" rx="5.66038" ry="6.30252" fill="#F1F3F4"/>
<path d="M148 46.0086C148 48.5924 146.164 50.3111 144.34 50.3111C142.515 50.3111 140.679 48.5924 140.679 46.0086C140.679 43.4248 142.515 41.7061 144.34 41.7061C146.164 41.7061 148 43.4248 148 46.0086Z" stroke="#FFA500" stroke-opacity="0.52" stroke-width="4"/>
<ellipse cx="5.66038" cy="65.5462" rx="5.66038" ry="6.30252" fill="#F1F3F4"/>
<path d="M9.32076 65.5462C9.32076 68.13 7.48523 69.8487 5.66038 69.8487C3.83553 69.8487 2 68.13 2 65.5462C2 62.9624 3.83553 61.2437 5.66038 61.2437C7.48523 61.2437 9.32076 62.9624 9.32076 65.5462Z" stroke="#9494A1" stroke-opacity="0.52" stroke-width="4"/>
<mask id="path-51-inside-1_317_1305" fill="white">
<ellipse cx="24.3396" cy="65.5462" rx="5.66038" ry="6.30252"/>
</mask>
<ellipse cx="24.3396" cy="65.5462" rx="5.66038" ry="6.30252" fill="#F1F3F4"/>
<path d="M24 65.5462C24 65.831 23.8972 65.9724 23.8781 65.9936C23.8713 66.0012 23.9006 65.9657 23.9865 65.9253C24.0793 65.8815 24.2052 65.8487 24.3396 65.8487V77.8487C31.3696 77.8487 36 71.718 36 65.5462H24ZM24.3396 65.8487C24.474 65.8487 24.5999 65.8815 24.6927 65.9253C24.7786 65.9657 24.8079 66.0012 24.8011 65.9936C24.782 65.9724 24.6792 65.831 24.6792 65.5462H12.6792C12.6792 71.718 17.3096 77.8487 24.3396 77.8487V65.8487ZM24.6792 65.5462C24.6792 65.2613 24.782 65.12 24.8011 65.0988C24.8079 65.0911 24.7786 65.1266 24.6927 65.1671C24.5999 65.2108 24.474 65.2437 24.3396 65.2437V53.2437C17.3096 53.2437 12.6792 59.3744 12.6792 65.5462H24.6792ZM24.3396 65.2437C24.2052 65.2437 24.0793 65.2108 23.9865 65.1671C23.9006 65.1266 23.8713 65.0911 23.8781 65.0988C23.8972 65.12 24 65.2613 24 65.5462H36C36 59.3744 31.3696 53.2437 24.3396 53.2437V65.2437Z" fill="#FFA500" fill-opacity="0.52" mask="url(#path-51-inside-1_317_1305)"/>
<ellipse cx="44.1509" cy="65.5462" rx="5.66038" ry="6.30252" fill="#F1F3F4"/>
<path d="M47.8113 65.5462C47.8113 68.13 45.9758 69.8487 44.1509 69.8487C42.3261 69.8487 40.4905 68.13 40.4905 65.5462C40.4905 62.9624 42.3261 61.2437 44.1509 61.2437C45.9758 61.2437 47.8113 62.9624 47.8113 65.5462Z" stroke="#9494A1" stroke-opacity="0.52" stroke-width="4"/>
<ellipse cx="62.8302" cy="65.5462" rx="5.66038" ry="6.30252" fill="#F1F3F4"/>
<path d="M67.4906 65.5462C67.4906 68.5785 65.3057 70.8487 62.8302 70.8487C60.3547 70.8487 58.1698 68.5785 58.1698 65.5462C58.1698 62.5139 60.3547 60.2437 62.8302 60.2437C65.3057 60.2437 67.4906 62.5139 67.4906 65.5462Z" stroke="#9494A1" stroke-opacity="0.52" stroke-width="2"/>
<ellipse cx="82.6415" cy="65.5462" rx="5.66038" ry="6.30252" fill="#F1F3F4"/>
<path d="M86.3019 65.5462C86.3019 68.13 84.4664 69.8487 82.6415 69.8487C80.8167 69.8487 78.9811 68.13 78.9811 65.5462C78.9811 62.9624 80.8167 61.2437 82.6415 61.2437C84.4664 61.2437 86.3019 62.9624 86.3019 65.5462Z" stroke="#9494A1" stroke-opacity="0.52" stroke-width="4"/>
<mask id="path-59-inside-2_317_1305" fill="white">
<ellipse cx="103.585" cy="65.5462" rx="5.66038" ry="6.30252"/>
</mask>
<ellipse cx="103.585" cy="65.5462" rx="5.66038" ry="6.30252" fill="#F1F3F4"/>
<path d="M103.245 65.5462C103.245 65.831 103.143 65.9724 103.123 65.9936C103.117 66.0012 103.146 65.9657 103.232 65.9253C103.325 65.8815 103.45 65.8487 103.585 65.8487V77.8487C110.615 77.8487 115.245 71.718 115.245 65.5462H103.245ZM103.585 65.8487C103.719 65.8487 103.845 65.8815 103.938 65.9253C104.024 65.9657 104.053 66.0012 104.046 65.9936C104.027 65.9724 103.925 65.831 103.925 65.5462H91.9245C91.9245 71.718 96.5549 77.8487 103.585 77.8487V65.8487ZM103.925 65.5462C103.925 65.2613 104.027 65.12 104.046 65.0988C104.053 65.0911 104.024 65.1266 103.938 65.1671C103.845 65.2108 103.719 65.2437 103.585 65.2437V53.2437C96.5549 53.2437 91.9245 59.3744 91.9245 65.5462H103.925ZM103.585 65.2437C103.45 65.2437 103.325 65.2108 103.232 65.1671C103.146 65.1266 103.117 65.0911 103.123 65.0988C103.143 65.12 103.245 65.2613 103.245 65.5462H115.245C115.245 59.3744 110.615 53.2437 103.585 53.2437V65.2437Z" fill="#FFA500" fill-opacity="0.52" mask="url(#path-59-inside-2_317_1305)"/>
<ellipse cx="123.396" cy="65.5462" rx="5.66038" ry="6.30252" fill="#F1F3F4"/>
<path d="M127.057 65.5462C127.057 68.13 125.221 69.8487 123.396 69.8487C121.571 69.8487 119.736 68.13 119.736 65.5462C119.736 62.9624 121.571 61.2437 123.396 61.2437C125.221 61.2437 127.057 62.9624 127.057 65.5462Z" stroke="#9494A1" stroke-opacity="0.52" stroke-width="4"/>
<ellipse cx="144.34" cy="65.5462" rx="5.66038" ry="6.30252" fill="#F1F3F4"/>
<path d="M148.5 65.5462C148.5 68.3542 146.49 70.3487 144.34 70.3487C142.189 70.3487 140.179 68.3542 140.179 65.5462C140.179 62.7381 142.189 60.7437 144.34 60.7437C146.49 60.7437 148.5 62.7381 148.5 65.5462Z" stroke="#FFA500" stroke-opacity="0.52" stroke-width="3"/>
<ellipse cx="5.66038" cy="84.4539" rx="5.66038" ry="6.30252" fill="#F1F3F4"/>
<path d="M9.32076 84.4539C9.32076 87.0377 7.48523 88.7564 5.66038 88.7564C3.83553 88.7564 2 87.0377 2 84.4539C2 81.8701 3.83553 80.1514 5.66038 80.1514C7.48523 80.1514 9.32076 81.8701 9.32076 84.4539Z" stroke="#9494A1" stroke-opacity="0.52" stroke-width="4"/>
<ellipse cx="24.3396" cy="84.4539" rx="5.66038" ry="6.30252" fill="#F1F3F4"/>
<path d="M28 84.4539C28 87.0377 26.1645 88.7564 24.3396 88.7564C22.5148 88.7564 20.6792 87.0377 20.6792 84.4539C20.6792 81.8701 22.5148 80.1514 24.3396 80.1514C26.1645 80.1514 28 81.8701 28 84.4539Z" stroke="#9494A1" stroke-opacity="0.52" stroke-width="4"/>
<ellipse cx="44.1509" cy="84.4539" rx="5.66038" ry="6.30252" fill="#F1F3F4"/>
<path d="M47.8113 84.4539C47.8113 87.0377 45.9758 88.7564 44.1509 88.7564C42.3261 88.7564 40.4905 87.0377 40.4905 84.4539C40.4905 81.8701 42.3261 80.1514 44.1509 80.1514C45.9758 80.1514 47.8113 81.8701 47.8113 84.4539Z" stroke="#FFA500" stroke-opacity="0.52" stroke-width="4"/>
<ellipse cx="62.8302" cy="84.4539" rx="5.66038" ry="6.30252" fill="#F1F3F4"/>
<path d="M66.4906 84.4539C66.4906 87.0377 64.655 88.7564 62.8302 88.7564C61.0053 88.7564 59.1698 87.0377 59.1698 84.4539C59.1698 81.8701 61.0053 80.1514 62.8302 80.1514C64.655 80.1514 66.4906 81.8701 66.4906 84.4539Z" stroke="#9494A1" stroke-opacity="0.52" stroke-width="4"/>
<ellipse cx="82.6415" cy="84.4539" rx="5.66038" ry="6.30252" fill="#F1F3F4"/>
<path d="M86.3019 84.4539C86.3019 87.0377 84.4664 88.7564 82.6415 88.7564C80.8167 88.7564 78.9811 87.0377 78.9811 84.4539C78.9811 81.8701 80.8167 80.1514 82.6415 80.1514C84.4664 80.1514 86.3019 81.8701 86.3019 84.4539Z" stroke="#9494A1" stroke-opacity="0.52" stroke-width="4"/>
<ellipse cx="103.585" cy="84.4539" rx="5.66038" ry="6.30252" fill="#F1F3F4"/>
<path d="M107.245 84.4539C107.245 87.0377 105.41 88.7564 103.585 88.7564C101.76 88.7564 99.9245 87.0377 99.9245 84.4539C99.9245 81.8701 101.76 80.1514 103.585 80.1514C105.41 80.1514 107.245 81.8701 107.245 84.4539Z" stroke="#9494A1" stroke-opacity="0.52" stroke-width="4"/>
<ellipse cx="123.396" cy="84.4539" rx="5.66038" ry="6.30252" fill="#F1F3F4"/>
<path d="M127.057 84.4539C127.057 87.0377 125.221 88.7564 123.396 88.7564C121.571 88.7564 119.736 87.0377 119.736 84.4539C119.736 81.8701 121.571 80.1514 123.396 80.1514C125.221 80.1514 127.057 81.8701 127.057 84.4539Z" stroke="#FFA500" stroke-opacity="0.52" stroke-width="4"/>
<ellipse cx="144.34" cy="84.4539" rx="5.66038" ry="6.30252" fill="#F1F3F4"/>
<path d="M148 84.4539C148 87.0377 146.164 88.7564 144.34 88.7564C142.515 88.7564 140.679 87.0377 140.679 84.4539C140.679 81.8701 142.515 80.1514 144.34 80.1514C146.164 80.1514 148 81.8701 148 84.4539Z" stroke="#9494A1" stroke-opacity="0.52" stroke-width="4"/>
<ellipse cx="5.66038" cy="103.361" rx="5.66038" ry="6.30252" fill="#F1F3F4"/>
<path d="M9.32076 103.361C9.32076 105.945 7.48523 107.664 5.66038 107.664C3.83553 107.664 2 105.945 2 103.361C2 100.777 3.83553 99.0586 5.66038 99.0586C7.48523 99.0586 9.32076 100.777 9.32076 103.361Z" stroke="#FFA500" stroke-opacity="0.52" stroke-width="4"/>
<ellipse cx="24.3396" cy="103.361" rx="5.66038" ry="6.30252" fill="#F1F3F4"/>
<path d="M28 103.361C28 105.945 26.1645 107.664 24.3396 107.664C22.5148 107.664 20.6792 105.945 20.6792 103.361C20.6792 100.777 22.5148 99.0586 24.3396 99.0586C26.1645 99.0586 28 100.777 28 103.361Z" stroke="#9494A1" stroke-opacity="0.52" stroke-width="4"/>
<ellipse cx="44.1509" cy="103.361" rx="5.66038" ry="6.30252" fill="#F1F3F4"/>
<path d="M47.8113 103.361C47.8113 105.945 45.9758 107.664 44.1509 107.664C42.3261 107.664 40.4905 105.945 40.4905 103.361C40.4905 100.777 42.3261 99.0586 44.1509 99.0586C45.9758 99.0586 47.8113 100.777 47.8113 103.361Z" stroke="#9494A1" stroke-opacity="0.52" stroke-width="4"/>
<ellipse cx="62.8302" cy="103.361" rx="5.66038" ry="6.30252" fill="#F1F3F4"/>
<path d="M66.4906 103.361C66.4906 105.945 64.655 107.664 62.8302 107.664C61.0053 107.664 59.1698 105.945 59.1698 103.361C59.1698 100.777 61.0053 99.0586 62.8302 99.0586C64.655 99.0586 66.4906 100.777 66.4906 103.361Z" stroke="#9494A1" stroke-opacity="0.52" stroke-width="4"/>
<ellipse cx="82.6415" cy="103.361" rx="5.66038" ry="6.30252" fill="#F1F3F4"/>
<path d="M86.3019 103.361C86.3019 105.945 84.4664 107.664 82.6415 107.664C80.8167 107.664 78.9811 105.945 78.9811 103.361C78.9811 100.777 80.8167 99.0586 82.6415 99.0586C84.4664 99.0586 86.3019 100.777 86.3019 103.361Z" stroke="#FFA500" stroke-opacity="0.52" stroke-width="4"/>
<ellipse cx="103.585" cy="103.361" rx="5.66038" ry="6.30252" fill="#F1F3F4"/>
<path d="M107.245 103.361C107.245 105.945 105.41 107.664 103.585 107.664C101.76 107.664 99.9245 105.945 99.9245 103.361C99.9245 100.777 101.76 99.0586 103.585 99.0586C105.41 99.0586 107.245 100.777 107.245 103.361Z" stroke="#9494A1" stroke-opacity="0.52" stroke-width="4"/>
<ellipse cx="123.396" cy="103.361" rx="5.66038" ry="6.30252" fill="#F1F3F4"/>
<path d="M127.057 103.361C127.057 105.945 125.221 107.664 123.396 107.664C121.571 107.664 119.736 105.945 119.736 103.361C119.736 100.777 121.571 99.0586 123.396 99.0586C125.221 99.0586 127.057 100.777 127.057 103.361Z" stroke="#9494A1" stroke-opacity="0.52" stroke-width="4"/>
<ellipse cx="144.34" cy="103.361" rx="5.66038" ry="6.30252" fill="#F1F3F4"/>
<path d="M148 103.361C148 105.945 146.164 107.664 144.34 107.664C142.515 107.664 140.679 105.945 140.679 103.361C140.679 100.777 142.515 99.0586 144.34 99.0586C146.164 99.0586 148 100.777 148 103.361Z" stroke="#9494A1" stroke-opacity="0.52" stroke-width="4"/>
<ellipse cx="5.66038" cy="122.899" rx="5.66038" ry="6.30252" fill="#F1F3F4"/>
<path d="M9.32076 122.899C9.32076 125.483 7.48523 127.202 5.66038 127.202C3.83553 127.202 2 125.483 2 122.899C2 120.315 3.83553 118.597 5.66038 118.597C7.48523 118.597 9.32076 120.315 9.32076 122.899Z" stroke="#9494A1" stroke-opacity="0.52" stroke-width="4"/>
<ellipse cx="24.3396" cy="122.899" rx="5.66038" ry="6.30252" fill="#F1F3F4"/>
<path d="M29 122.899C29 125.931 26.8151 128.202 24.3396 128.202C21.8641 128.202 19.6792 125.931 19.6792 122.899C19.6792 119.867 21.8641 117.597 24.3396 117.597C26.8151 117.597 29 119.867 29 122.899Z" stroke="#9494A1" stroke-opacity="0.52" stroke-width="2"/>
<ellipse cx="44.1509" cy="122.899" rx="5.66038" ry="6.30252" fill="#F1F3F4"/>
<path d="M47.8113 122.899C47.8113 125.483 45.9758 127.202 44.1509 127.202C42.3261 127.202 40.4905 125.483 40.4905 122.899C40.4905 120.315 42.3261 118.597 44.1509 118.597C45.9758 118.597 47.8113 120.315 47.8113 122.899Z" stroke="#9494A1" stroke-opacity="0.52" stroke-width="4"/>
<ellipse cx="62.8302" cy="122.899" rx="5.66038" ry="6.30252" fill="#F1F3F4"/>
<path d="M66.4906 122.899C66.4906 125.483 64.655 127.202 62.8302 127.202C61.0053 127.202 59.1698 125.483 59.1698 122.899C59.1698 120.315 61.0053 118.597 62.8302 118.597C64.655 118.597 66.4906 120.315 66.4906 122.899Z" stroke="#FFA500" stroke-opacity="0.52" stroke-width="4"/>
<ellipse cx="82.6415" cy="122.899" rx="5.66038" ry="6.30252" fill="#F1F3F4"/>
<path d="M86.3019 122.899C86.3019 125.483 84.4664 127.202 82.6415 127.202C80.8167 127.202 78.9811 125.483 78.9811 122.899C78.9811 120.315 80.8167 118.597 82.6415 118.597C84.4664 118.597 86.3019 120.315 86.3019 122.899Z" stroke="#9494A1" stroke-opacity="0.52" stroke-width="4"/>
<ellipse cx="103.585" cy="122.899" rx="5.66038" ry="6.30252" fill="#F1F3F4"/>
<path d="M108.245 122.899C108.245 125.931 106.06 128.202 103.585 128.202C101.109 128.202 98.9245 125.931 98.9245 122.899C98.9245 119.867 101.109 117.597 103.585 117.597C106.06 117.597 108.245 119.867 108.245 122.899Z" stroke="#9494A1" stroke-opacity="0.52" stroke-width="2"/>
<ellipse cx="123.396" cy="122.899" rx="5.66038" ry="6.30252" fill="#F1F3F4"/>
<path d="M127.057 122.899C127.057 125.483 125.221 127.202 123.396 127.202C121.571 127.202 119.736 125.483 119.736 122.899C119.736 120.315 121.571 118.597 123.396 118.597C125.221 118.597 127.057 120.315 127.057 122.899Z" stroke="#9494A1" stroke-opacity="0.52" stroke-width="4"/>
<ellipse cx="144.34" cy="122.899" rx="5.66038" ry="6.30252" fill="#F1F3F4"/>
<path d="M148 122.899C148 125.483 146.164 127.202 144.34 127.202C142.515 127.202 140.679 125.483 140.679 122.899C140.679 120.315 142.515 118.597 144.34 118.597C146.164 118.597 148 120.315 148 122.899Z" stroke="#FFA500" stroke-opacity="0.52" stroke-width="4"/>
<ellipse cx="5.66038" cy="143.698" rx="5.66038" ry="6.30252" fill="#F1F3F4"/>
<path d="M9.32076 143.698C9.32076 146.281 7.48523 148 5.66038 148C3.83553 148 2 146.281 2 143.698C2 141.114 3.83553 139.395 5.66038 139.395C7.48523 139.395 9.32076 141.114 9.32076 143.698Z" stroke="#9494A1" stroke-opacity="0.52" stroke-width="4"/>
<mask id="path-115-inside-3_317_1305" fill="white">
<ellipse cx="24.3396" cy="143.698" rx="5.66038" ry="6.30252"/>
</mask>
<ellipse cx="24.3396" cy="143.698" rx="5.66038" ry="6.30252" fill="#F1F3F4"/>
<path d="M24 143.698C24 143.982 23.8972 144.124 23.8781 144.145C23.8713 144.153 23.9006 144.117 23.9865 144.077C24.0793 144.033 24.2052 144 24.3396 144V156C31.3696 156 36 149.869 36 143.698H24ZM24.3396 144C24.474 144 24.5999 144.033 24.6927 144.077C24.7786 144.117 24.8079 144.153 24.8011 144.145C24.782 144.124 24.6792 143.982 24.6792 143.698H12.6792C12.6792 149.869 17.3096 156 24.3396 156V144ZM24.6792 143.698C24.6792 143.413 24.782 143.271 24.8011 143.25C24.8079 143.242 24.7786 143.278 24.6927 143.318C24.5999 143.362 24.474 143.395 24.3396 143.395V131.395C17.3096 131.395 12.6792 137.526 12.6792 143.698H24.6792ZM24.3396 143.395C24.2052 143.395 24.0793 143.362 23.9865 143.318C23.9006 143.278 23.8713 143.242 23.8781 143.25C23.8972 143.271 24 143.413 24 143.698H36C36 137.526 31.3696 131.395 24.3396 131.395V143.395Z" fill="#FFA500" fill-opacity="0.52" mask="url(#path-115-inside-3_317_1305)"/>
<ellipse cx="44.1509" cy="143.698" rx="5.66038" ry="6.30252" fill="#F1F3F4"/>
<path d="M47.8113 143.698C47.8113 146.281 45.9758 148 44.1509 148C42.3261 148 40.4905 146.281 40.4905 143.698C40.4905 141.114 42.3261 139.395 44.1509 139.395C45.9758 139.395 47.8113 141.114 47.8113 143.698Z" stroke="#9494A1" stroke-opacity="0.52" stroke-width="4"/>
<ellipse cx="62.8302" cy="143.698" rx="5.66038" ry="6.30252" fill="#F1F3F4"/>
<path d="M67.4906 143.698C67.4906 146.73 65.3057 149 62.8302 149C60.3547 149 58.1698 146.73 58.1698 143.698C58.1698 140.665 60.3547 138.395 62.8302 138.395C65.3057 138.395 67.4906 140.665 67.4906 143.698Z" stroke="#9494A1" stroke-opacity="0.52" stroke-width="2"/>
<ellipse cx="82.6415" cy="143.698" rx="5.66038" ry="6.30252" fill="#F1F3F4"/>
<path d="M86.3019 143.698C86.3019 146.281 84.4664 148 82.6415 148C80.8167 148 78.9811 146.281 78.9811 143.698C78.9811 141.114 80.8167 139.395 82.6415 139.395C84.4664 139.395 86.3019 141.114 86.3019 143.698Z" stroke="#9494A1" stroke-opacity="0.52" stroke-width="4"/>
<mask id="path-123-inside-4_317_1305" fill="white">
<ellipse cx="103.585" cy="143.698" rx="5.66038" ry="6.30252"/>
</mask>
<ellipse cx="103.585" cy="143.698" rx="5.66038" ry="6.30252" fill="#F1F3F4"/>
<path d="M103.245 143.698C103.245 143.982 103.143 144.124 103.123 144.145C103.117 144.153 103.146 144.117 103.232 144.077C103.325 144.033 103.45 144 103.585 144V156C110.615 156 115.245 149.869 115.245 143.698H103.245ZM103.585 144C103.719 144 103.845 144.033 103.938 144.077C104.024 144.117 104.053 144.153 104.046 144.145C104.027 144.124 103.925 143.982 103.925 143.698H91.9245C91.9245 149.869 96.5549 156 103.585 156V144ZM103.925 143.698C103.925 143.413 104.027 143.271 104.046 143.25C104.053 143.242 104.024 143.278 103.938 143.318C103.845 143.362 103.719 143.395 103.585 143.395V131.395C96.5549 131.395 91.9245 137.526 91.9245 143.698H103.925ZM103.585 143.395C103.45 143.395 103.325 143.362 103.232 143.318C103.146 143.278 103.117 143.242 103.123 143.25C103.143 143.271 103.245 143.413 103.245 143.698H115.245C115.245 137.526 110.615 131.395 103.585 131.395V143.395Z" fill="#FFA500" fill-opacity="0.52" mask="url(#path-123-inside-4_317_1305)"/>
<ellipse cx="123.396" cy="143.698" rx="5.66038" ry="6.30252" fill="#F1F3F4"/>
<path d="M127.057 143.698C127.057 146.281 125.221 148 123.396 148C121.571 148 119.736 146.281 119.736 143.698C119.736 141.114 121.571 139.395 123.396 139.395C125.221 139.395 127.057 141.114 127.057 143.698Z" stroke="#9494A1" stroke-opacity="0.52" stroke-width="4"/>
<ellipse cx="144.34" cy="143.698" rx="5.66038" ry="6.30252" fill="#F1F3F4"/>
<path d="M149 143.698C149 146.73 146.815 149 144.34 149C141.864 149 139.679 146.73 139.679 143.698C139.679 140.665 141.864 138.395 144.34 138.395C146.815 138.395 149 140.665 149 143.698Z" stroke="#9494A1" stroke-opacity="0.52" stroke-width="2"/>
</svg>
