<svg width="277" height="233" viewBox="0 0 277 233" fill="none" xmlns="http://www.w3.org/2000/svg">
<circle cx="3.16829" cy="3.16829" r="3.16829" fill="#909597" fill-opacity="0.52"/>
<circle cx="24.8937" cy="3.16829" r="3.16829" fill="#909597" fill-opacity="0.52"/>
<circle cx="48.4298" cy="3.16829" r="3.16829" fill="#909597" fill-opacity="0.52"/>
<circle cx="72.8702" cy="3.16829" r="3.16829" fill="#909597" fill-opacity="0.52"/>
<circle cx="99.1214" cy="3.16829" r="3.16829" fill="#909597" fill-opacity="0.52"/>
<circle cx="126.279" cy="3.16829" r="3.16829" fill="#909597" fill-opacity="0.52"/>
<circle cx="150.719" cy="3.16829" r="3.16829" fill="#909597" fill-opacity="0.52"/>
<circle cx="172.446" cy="3.16829" r="3.16829" fill="#909597" fill-opacity="0.52"/>
<circle cx="195.982" cy="3.16829" r="3.16829" fill="#909597" fill-opacity="0.52"/>
<circle cx="220.422" cy="3.16829" r="3.16829" fill="#909597" fill-opacity="0.52"/>
<circle cx="246.674" cy="3.16829" r="3.16829" fill="#909597" fill-opacity="0.52"/>
<circle cx="273.832" cy="3.16829" r="3.16829" fill="#909597" fill-opacity="0.52"/>
<circle cx="3.16829" cy="23.9876" r="3.16829" fill="#909597" fill-opacity="0.52"/>
<circle cx="24.8937" cy="23.9876" r="3.16829" fill="#909597" fill-opacity="0.52"/>
<circle cx="48.4298" cy="23.9876" r="3.16829" fill="#909597" fill-opacity="0.52"/>
<circle cx="72.8702" cy="23.9876" r="3.16829" fill="#909597" fill-opacity="0.52"/>
<circle cx="99.1214" cy="23.9876" r="3.16829" fill="#909597" fill-opacity="0.52"/>
<circle cx="126.279" cy="23.9876" r="3.16829" fill="#909597" fill-opacity="0.52"/>
<circle cx="150.719" cy="23.9876" r="3.16829" fill="#909597" fill-opacity="0.52"/>
<circle cx="172.446" cy="23.9876" r="3.16829" fill="#909597" fill-opacity="0.52"/>
<circle cx="195.982" cy="23.9876" r="3.16829" fill="#909597" fill-opacity="0.52"/>
<circle cx="220.422" cy="23.9876" r="3.16829" fill="#909597" fill-opacity="0.52"/>
<circle cx="246.674" cy="23.9876" r="3.16829" fill="#909597" fill-opacity="0.52"/>
<circle cx="273.832" cy="23.9876" r="3.16829" fill="#909597" fill-opacity="0.52"/>
<circle cx="3.16829" cy="44.807" r="3.16829" fill="#909597" fill-opacity="0.52"/>
<circle cx="24.8937" cy="44.807" r="3.16829" fill="#909597" fill-opacity="0.52"/>
<circle cx="48.4298" cy="44.807" r="3.16829" fill="#909597" fill-opacity="0.52"/>
<circle cx="72.8702" cy="44.807" r="3.16829" fill="#909597" fill-opacity="0.52"/>
<circle cx="99.1214" cy="44.807" r="3.16829" fill="#909597" fill-opacity="0.52"/>
<circle cx="126.279" cy="44.807" r="3.16829" fill="#909597" fill-opacity="0.52"/>
<circle cx="150.719" cy="44.807" r="3.16829" fill="#909597" fill-opacity="0.52"/>
<circle cx="172.446" cy="44.807" r="3.16829" fill="#909597" fill-opacity="0.52"/>
<circle cx="195.982" cy="44.807" r="3.16829" fill="#909597" fill-opacity="0.52"/>
<circle cx="220.422" cy="44.807" r="3.16829" fill="#909597" fill-opacity="0.52"/>
<circle cx="246.674" cy="44.807" r="3.16829" fill="#909597" fill-opacity="0.52"/>
<circle cx="273.832" cy="44.807" r="3.16829" fill="#909597" fill-opacity="0.52"/>
<circle cx="3.16829" cy="66.5352" r="3.16829" fill="#909597" fill-opacity="0.52"/>
<circle cx="24.8937" cy="66.5352" r="3.16829" fill="#909597" fill-opacity="0.52"/>
<circle cx="48.4298" cy="66.5352" r="3.16829" fill="#909597" fill-opacity="0.52"/>
<circle cx="72.8702" cy="66.5352" r="3.16829" fill="#909597" fill-opacity="0.52"/>
<circle cx="99.1214" cy="66.5352" r="3.16829" fill="#909597" fill-opacity="0.52"/>
<circle cx="126.279" cy="66.5352" r="3.16829" fill="#909597" fill-opacity="0.52"/>
<circle cx="150.719" cy="66.5352" r="3.16829" fill="#909597" fill-opacity="0.52"/>
<circle cx="172.446" cy="66.5352" r="3.16829" fill="#909597" fill-opacity="0.52"/>
<circle cx="195.982" cy="66.5352" r="3.16829" fill="#909597" fill-opacity="0.52"/>
<circle cx="220.422" cy="66.5352" r="3.16829" fill="#909597" fill-opacity="0.52"/>
<circle cx="246.674" cy="66.5352" r="3.16829" fill="#909597" fill-opacity="0.52"/>
<circle cx="273.832" cy="66.5352" r="3.16829" fill="#909597" fill-opacity="0.52"/>
<circle cx="3.16829" cy="89.1624" r="3.16829" fill="#909597" fill-opacity="0.52"/>
<circle cx="24.8937" cy="89.1624" r="3.16829" fill="#909597" fill-opacity="0.52"/>
<circle cx="48.4298" cy="89.1624" r="3.16829" fill="#909597" fill-opacity="0.52"/>
<circle cx="72.8702" cy="89.1624" r="3.16829" fill="#909597" fill-opacity="0.52"/>
<circle cx="99.1214" cy="89.1624" r="3.16829" fill="#909597" fill-opacity="0.52"/>
<circle cx="126.279" cy="89.1624" r="3.16829" fill="#909597" fill-opacity="0.52"/>
<circle cx="150.719" cy="89.1624" r="3.16829" fill="#909597" fill-opacity="0.52"/>
<circle cx="172.446" cy="89.1624" r="3.16829" fill="#909597" fill-opacity="0.52"/>
<circle cx="195.982" cy="89.1624" r="3.16829" fill="#909597" fill-opacity="0.52"/>
<circle cx="220.422" cy="89.1624" r="3.16829" fill="#909597" fill-opacity="0.52"/>
<circle cx="246.674" cy="89.1624" r="3.16829" fill="#909597" fill-opacity="0.52"/>
<circle cx="273.832" cy="89.1624" r="3.16829" fill="#909597" fill-opacity="0.52"/>
<circle cx="3.16829" cy="109.982" r="3.16829" fill="#909597" fill-opacity="0.52"/>
<circle cx="24.8937" cy="109.982" r="3.16829" fill="#909597" fill-opacity="0.52"/>
<circle cx="48.4298" cy="109.982" r="3.16829" fill="#909597" fill-opacity="0.52"/>
<circle cx="72.8702" cy="109.982" r="3.16829" fill="#909597" fill-opacity="0.52"/>
<circle cx="99.1214" cy="109.982" r="3.16829" fill="#909597" fill-opacity="0.52"/>
<circle cx="126.279" cy="109.982" r="3.16829" fill="#909597" fill-opacity="0.52"/>
<circle cx="150.719" cy="109.982" r="3.16829" fill="#909597" fill-opacity="0.52"/>
<circle cx="172.446" cy="109.982" r="3.16829" fill="#909597" fill-opacity="0.52"/>
<circle cx="195.982" cy="109.982" r="3.16829" fill="#909597" fill-opacity="0.52"/>
<circle cx="220.422" cy="109.982" r="3.16829" fill="#909597" fill-opacity="0.52"/>
<circle cx="246.674" cy="109.982" r="3.16829" fill="#909597" fill-opacity="0.52"/>
<circle cx="273.832" cy="109.982" r="3.16829" fill="#909597" fill-opacity="0.52"/>
<circle cx="3.16829" cy="130.801" r="3.16829" fill="#909597" fill-opacity="0.52"/>
<circle cx="24.8937" cy="130.801" r="3.16829" fill="#909597" fill-opacity="0.52"/>
<circle cx="48.4298" cy="130.801" r="3.16829" fill="#909597" fill-opacity="0.52"/>
<circle cx="72.8702" cy="130.801" r="3.16829" fill="#909597" fill-opacity="0.52"/>
<circle cx="99.1214" cy="130.801" r="3.16829" fill="#909597" fill-opacity="0.52"/>
<circle cx="126.279" cy="130.801" r="3.16829" fill="#909597" fill-opacity="0.52"/>
<circle cx="150.719" cy="130.801" r="3.16829" fill="#909597" fill-opacity="0.52"/>
<circle cx="172.446" cy="130.801" r="3.16829" fill="#909597" fill-opacity="0.52"/>
<circle cx="195.982" cy="130.801" r="3.16829" fill="#909597" fill-opacity="0.52"/>
<circle cx="220.422" cy="130.801" r="3.16829" fill="#909597" fill-opacity="0.52"/>
<circle cx="246.674" cy="130.801" r="3.16829" fill="#909597" fill-opacity="0.52"/>
<circle cx="273.832" cy="130.801" r="3.16829" fill="#909597" fill-opacity="0.52"/>
<circle cx="3.16829" cy="151.62" r="3.16829" fill="#909597" fill-opacity="0.52"/>
<circle cx="24.8937" cy="151.62" r="3.16829" fill="#909597" fill-opacity="0.52"/>
<circle cx="48.4298" cy="151.62" r="3.16829" fill="#909597" fill-opacity="0.52"/>
<circle cx="72.8702" cy="151.62" r="3.16829" fill="#909597" fill-opacity="0.52"/>
<circle cx="99.1214" cy="151.62" r="3.16829" fill="#909597" fill-opacity="0.52"/>
<circle cx="126.279" cy="151.62" r="3.16829" fill="#909597" fill-opacity="0.52"/>
<circle cx="150.719" cy="151.62" r="3.16829" fill="#909597" fill-opacity="0.52"/>
<circle cx="172.446" cy="151.62" r="3.16829" fill="#909597" fill-opacity="0.52"/>
<circle cx="195.982" cy="151.62" r="3.16829" fill="#909597" fill-opacity="0.52"/>
<circle cx="220.422" cy="151.62" r="3.16829" fill="#909597" fill-opacity="0.52"/>
<circle cx="246.674" cy="151.62" r="3.16829" fill="#909597" fill-opacity="0.52"/>
<circle cx="273.832" cy="151.62" r="3.16829" fill="#909597" fill-opacity="0.52"/>
<circle cx="3.16829" cy="171.539" r="3.16829" fill="#909597" fill-opacity="0.52"/>
<circle cx="24.8937" cy="171.539" r="3.16829" fill="#909597" fill-opacity="0.52"/>
<circle cx="48.4298" cy="171.539" r="3.16829" fill="#909597" fill-opacity="0.52"/>
<circle cx="72.8702" cy="171.539" r="3.16829" fill="#909597" fill-opacity="0.52"/>
<circle cx="99.1214" cy="171.539" r="3.16829" fill="#909597" fill-opacity="0.52"/>
<circle cx="126.279" cy="171.539" r="3.16829" fill="#909597" fill-opacity="0.52"/>
<circle cx="150.719" cy="171.539" r="3.16829" fill="#909597" fill-opacity="0.52"/>
<circle cx="172.446" cy="171.539" r="3.16829" fill="#909597" fill-opacity="0.52"/>
<circle cx="195.982" cy="171.539" r="3.16829" fill="#909597" fill-opacity="0.52"/>
<circle cx="220.422" cy="171.539" r="3.16829" fill="#909597" fill-opacity="0.52"/>
<circle cx="246.674" cy="171.539" r="3.16829" fill="#909597" fill-opacity="0.52"/>
<circle cx="273.832" cy="171.539" r="3.16829" fill="#909597" fill-opacity="0.52"/>
<circle cx="3.16829" cy="189.641" r="3.16829" fill="#909597" fill-opacity="0.52"/>
<circle cx="24.8937" cy="189.641" r="3.16829" fill="#909597" fill-opacity="0.52"/>
<circle cx="48.4298" cy="189.641" r="3.16829" fill="#909597" fill-opacity="0.52"/>
<circle cx="72.8702" cy="189.641" r="3.16829" fill="#909597" fill-opacity="0.52"/>
<circle cx="99.1214" cy="189.641" r="3.16829" fill="#909597" fill-opacity="0.52"/>
<circle cx="126.279" cy="189.641" r="3.16829" fill="#909597" fill-opacity="0.52"/>
<circle cx="150.719" cy="189.641" r="3.16829" fill="#909597" fill-opacity="0.52"/>
<circle cx="172.446" cy="189.641" r="3.16829" fill="#909597" fill-opacity="0.52"/>
<circle cx="195.982" cy="189.641" r="3.16829" fill="#909597" fill-opacity="0.52"/>
<circle cx="220.422" cy="189.641" r="3.16829" fill="#909597" fill-opacity="0.52"/>
<circle cx="246.674" cy="189.641" r="3.16829" fill="#909597" fill-opacity="0.52"/>
<circle cx="273.832" cy="189.641" r="3.16829" fill="#909597" fill-opacity="0.52"/>
<circle cx="3.16829" cy="209.56" r="3.16829" fill="#909597" fill-opacity="0.52"/>
<circle cx="24.8937" cy="209.56" r="3.16829" fill="#909597" fill-opacity="0.52"/>
<circle cx="48.4298" cy="209.56" r="3.16829" fill="#909597" fill-opacity="0.52"/>
<circle cx="72.8702" cy="209.56" r="3.16829" fill="#909597" fill-opacity="0.52"/>
<circle cx="99.1214" cy="209.56" r="3.16829" fill="#909597" fill-opacity="0.52"/>
<circle cx="126.279" cy="209.56" r="3.16829" fill="#909597" fill-opacity="0.52"/>
<circle cx="150.719" cy="209.56" r="3.16829" fill="#909597" fill-opacity="0.52"/>
<circle cx="172.446" cy="209.56" r="3.16829" fill="#909597" fill-opacity="0.52"/>
<circle cx="195.982" cy="209.56" r="3.16829" fill="#909597" fill-opacity="0.52"/>
<circle cx="220.422" cy="209.56" r="3.16829" fill="#909597" fill-opacity="0.52"/>
<circle cx="246.674" cy="209.56" r="3.16829" fill="#909597" fill-opacity="0.52"/>
<circle cx="273.832" cy="209.56" r="3.16829" fill="#909597" fill-opacity="0.52"/>
<circle cx="3.16829" cy="229.477" r="3.16829" fill="#909597" fill-opacity="0.52"/>
<circle cx="24.8937" cy="229.477" r="3.16829" fill="#909597" fill-opacity="0.52"/>
<circle cx="48.4298" cy="229.477" r="3.16829" fill="#909597" fill-opacity="0.52"/>
<circle cx="72.8702" cy="229.477" r="3.16829" fill="#909597" fill-opacity="0.52"/>
<circle cx="99.1214" cy="229.477" r="3.16829" fill="#909597" fill-opacity="0.52"/>
<circle cx="126.279" cy="229.477" r="3.16829" fill="#909597" fill-opacity="0.52"/>
<circle cx="150.719" cy="229.477" r="3.16829" fill="#909597" fill-opacity="0.52"/>
<circle cx="172.446" cy="229.477" r="3.16829" fill="#909597" fill-opacity="0.52"/>
<circle cx="195.982" cy="229.477" r="3.16829" fill="#909597" fill-opacity="0.52"/>
<circle cx="220.422" cy="229.477" r="3.16829" fill="#909597" fill-opacity="0.52"/>
<circle cx="246.674" cy="229.477" r="3.16829" fill="#909597" fill-opacity="0.52"/>
<circle cx="273.832" cy="229.477" r="3.16829" fill="#909597" fill-opacity="0.52"/>
</svg>
