<svg width="334" height="322" viewBox="0 0 334 322" fill="none" xmlns="http://www.w3.org/2000/svg">
<circle cx="121.802" cy="4.47588" r="2.92801" transform="rotate(34 121.802 4.47588)" fill="#FFA500" fill-opacity="0.52"/>
<circle cx="138.447" cy="15.701" r="2.92801" transform="rotate(34 138.447 15.701)" fill="#FFA500" fill-opacity="0.52"/>
<circle cx="156.48" cy="27.867" r="2.92801" transform="rotate(34 156.48 27.867)" fill="#FFA500" fill-opacity="0.52"/>
<circle cx="175.207" cy="40.4983" r="2.92801" transform="rotate(34 175.207 40.4983)" fill="#FFA500" fill-opacity="0.52"/>
<circle cx="195.319" cy="54.0613" r="2.92801" transform="rotate(34 195.319 54.0613)" fill="#FFA500" fill-opacity="0.52"/>
<circle cx="216.126" cy="68.0984" r="2.92801" transform="rotate(34 216.126 68.0984)" fill="#FFA500" fill-opacity="0.52"/>
<circle cx="234.852" cy="80.7273" r="2.92801" transform="rotate(34 234.852 80.7273)" fill="#FFA500" fill-opacity="0.52"/>
<circle cx="251.497" cy="91.9573" r="2.92801" transform="rotate(34 251.497 91.9573)" fill="#FFA500" fill-opacity="0.52"/>
<circle cx="269.529" cy="104.119" r="2.92801" transform="rotate(34 269.529 104.119)" fill="#FFA500" fill-opacity="0.52"/>
<circle cx="288.255" cy="116.752" r="2.92801" transform="rotate(34 288.255 116.752)" fill="#FFA500" fill-opacity="0.52"/>
<circle cx="308.367" cy="130.316" r="2.92801" transform="rotate(34 308.367 130.316)" fill="#FFA500" fill-opacity="0.52"/>
<circle cx="329.174" cy="144.349" r="2.92801" transform="rotate(34 329.174 144.349)" fill="#FFA500" fill-opacity="0.52"/>
<circle cx="111.043" cy="20.4212" r="2.92801" transform="rotate(34 111.043 20.4212)" fill="#FFA500" fill-opacity="0.52"/>
<circle cx="127.688" cy="31.6556" r="2.92801" transform="rotate(34 127.688 31.6556)" fill="#FFA500" fill-opacity="0.52"/>
<circle cx="145.72" cy="43.8152" r="2.92801" transform="rotate(34 145.72 43.8152)" fill="#FFA500" fill-opacity="0.52"/>
<circle cx="164.447" cy="56.4485" r="2.92801" transform="rotate(34 164.447 56.4485)" fill="#FFA500" fill-opacity="0.52"/>
<circle cx="184.56" cy="70.0184" r="2.92801" transform="rotate(34 184.56 70.0184)" fill="#FFA500" fill-opacity="0.52"/>
<circle cx="205.367" cy="84.0452" r="2.92801" transform="rotate(34 205.367 84.0452)" fill="#FFA500" fill-opacity="0.52"/>
<circle cx="224.092" cy="96.6771" r="2.92801" transform="rotate(34 224.092 96.6771)" fill="#FFA500" fill-opacity="0.52"/>
<circle cx="240.738" cy="107.906" r="2.92801" transform="rotate(34 240.738 107.906)" fill="#FFA500" fill-opacity="0.52"/>
<circle cx="258.769" cy="120.071" r="2.92801" transform="rotate(34 258.769 120.071)" fill="#FFA500" fill-opacity="0.52"/>
<circle cx="277.495" cy="132.702" r="2.92801" transform="rotate(34 277.495 132.702)" fill="#FFA500" fill-opacity="0.52"/>
<circle cx="297.608" cy="146.27" r="2.92801" transform="rotate(34 297.608 146.27)" fill="#FFA500" fill-opacity="0.52"/>
<circle cx="318.414" cy="160.301" r="2.92801" transform="rotate(34 318.414 160.301)" fill="#FFA500" fill-opacity="0.52"/>
<circle cx="100.283" cy="36.3812" r="2.92801" transform="rotate(34 100.283 36.3812)" fill="#FFA500" fill-opacity="0.52"/>
<circle cx="116.928" cy="47.6072" r="2.92801" transform="rotate(34 116.928 47.6072)" fill="#FFA500" fill-opacity="0.52"/>
<circle cx="134.961" cy="59.7728" r="2.92801" transform="rotate(34 134.961 59.7728)" fill="#FFA500" fill-opacity="0.52"/>
<circle cx="153.688" cy="72.4031" r="2.92801" transform="rotate(34 153.688 72.4031)" fill="#FFA500" fill-opacity="0.52"/>
<circle cx="173.801" cy="85.97" r="2.92801" transform="rotate(34 173.801 85.97)" fill="#FFA500" fill-opacity="0.52"/>
<circle cx="194.607" cy="100.004" r="2.92801" transform="rotate(34 194.607 100.004)" fill="#FFA500" fill-opacity="0.52"/>
<circle cx="213.333" cy="112.632" r="2.92801" transform="rotate(34 213.333 112.632)" fill="#FFA500" fill-opacity="0.52"/>
<circle cx="229.978" cy="123.858" r="2.92801" transform="rotate(34 229.978 123.858)" fill="#FFA500" fill-opacity="0.52"/>
<circle cx="248.01" cy="136.025" r="2.92801" transform="rotate(34 248.01 136.025)" fill="#FFA500" fill-opacity="0.52"/>
<circle cx="266.736" cy="148.655" r="2.92801" transform="rotate(34 266.736 148.655)" fill="#FFA500" fill-opacity="0.52"/>
<circle cx="286.849" cy="162.218" r="2.92801" transform="rotate(34 286.849 162.218)" fill="#FFA500" fill-opacity="0.52"/>
<circle cx="307.655" cy="176.255" r="2.92801" transform="rotate(34 307.655 176.255)" fill="#FFA500" fill-opacity="0.52"/>
<circle cx="89.0558" cy="53.0272" r="2.92801" transform="rotate(34 89.0558 53.0272)" fill="#FFA500" fill-opacity="0.52"/>
<circle cx="105.701" cy="64.2542" r="2.92801" transform="rotate(34 105.701 64.2542)" fill="#FFA500" fill-opacity="0.52"/>
<circle cx="123.733" cy="76.4061" r="2.92801" transform="rotate(34 123.733 76.4061)" fill="#FFA500" fill-opacity="0.52"/>
<circle cx="142.46" cy="89.0408" r="2.92801" transform="rotate(34 142.46 89.0408)" fill="#FFA500" fill-opacity="0.52"/>
<circle cx="162.573" cy="102.613" r="2.92801" transform="rotate(34 162.573 102.613)" fill="#FFA500" fill-opacity="0.52"/>
<circle cx="183.38" cy="116.649" r="2.92801" transform="rotate(34 183.38 116.649)" fill="#FFA500" fill-opacity="0.52"/>
<circle cx="202.106" cy="129.281" r="2.92801" transform="rotate(34 202.106 129.281)" fill="#FFA500" fill-opacity="0.52"/>
<circle cx="218.751" cy="140.504" r="2.92801" transform="rotate(34 218.751 140.504)" fill="#FFA500" fill-opacity="0.52"/>
<circle cx="236.783" cy="152.664" r="2.92801" transform="rotate(34 236.783 152.664)" fill="#FFA500" fill-opacity="0.52"/>
<circle cx="255.508" cy="165.296" r="2.92801" transform="rotate(34 255.508 165.296)" fill="#FFA500" fill-opacity="0.52"/>
<circle cx="275.621" cy="178.864" r="2.92801" transform="rotate(34 275.621 178.864)" fill="#FFA500" fill-opacity="0.52"/>
<circle cx="296.428" cy="192.905" r="2.92801" transform="rotate(34 296.428 192.905)" fill="#FFA500" fill-opacity="0.52"/>
<circle cx="77.3606" cy="70.3616" r="2.92801" transform="rotate(34 77.3606 70.3616)" fill="#FFA500" fill-opacity="0.52"/>
<circle cx="94.0059" cy="81.5926" r="2.92801" transform="rotate(34 94.0059 81.5926)" fill="#FFA500" fill-opacity="0.52"/>
<circle cx="112.038" cy="93.7566" r="2.92801" transform="rotate(34 112.038 93.7566)" fill="#FFA500" fill-opacity="0.52"/>
<circle cx="130.765" cy="106.386" r="2.92801" transform="rotate(34 130.765 106.386)" fill="#FFA500" fill-opacity="0.52"/>
<circle cx="150.878" cy="119.952" r="2.92801" transform="rotate(34 150.878 119.952)" fill="#FFA500" fill-opacity="0.52"/>
<circle cx="171.684" cy="133.984" r="2.92801" transform="rotate(34 171.684 133.984)" fill="#FFA500" fill-opacity="0.52"/>
<circle cx="190.41" cy="146.617" r="2.92801" transform="rotate(34 190.41 146.617)" fill="#FFA500" fill-opacity="0.52"/>
<circle cx="207.055" cy="157.842" r="2.92801" transform="rotate(34 207.055 157.842)" fill="#FFA500" fill-opacity="0.52"/>
<circle cx="225.088" cy="170.007" r="2.92801" transform="rotate(34 225.088 170.007)" fill="#FFA500" fill-opacity="0.52"/>
<circle cx="243.813" cy="182.639" r="2.92801" transform="rotate(34 243.813 182.639)" fill="#FFA500" fill-opacity="0.52"/>
<circle cx="263.926" cy="196.199" r="2.92801" transform="rotate(34 263.926 196.199)" fill="#FFA500" fill-opacity="0.52"/>
<circle cx="284.731" cy="210.231" r="2.92801" transform="rotate(34 284.731 210.231)" fill="#FFA500" fill-opacity="0.52"/>
<circle cx="66.6012" cy="86.3133" r="2.92801" transform="rotate(34 66.6012 86.3133)" fill="#FFA500" fill-opacity="0.52"/>
<circle cx="83.2464" cy="97.5306" r="2.92801" transform="rotate(34 83.2464 97.5306)" fill="#FFA500" fill-opacity="0.52"/>
<circle cx="101.279" cy="109.706" r="2.92801" transform="rotate(34 101.279 109.706)" fill="#FFA500" fill-opacity="0.52"/>
<circle cx="120.006" cy="122.336" r="2.92801" transform="rotate(34 120.006 122.336)" fill="#FFA500" fill-opacity="0.52"/>
<circle cx="140.119" cy="135.906" r="2.92801" transform="rotate(34 140.119 135.906)" fill="#FFA500" fill-opacity="0.52"/>
<circle cx="160.925" cy="149.936" r="2.92801" transform="rotate(34 160.925 149.936)" fill="#FFA500" fill-opacity="0.52"/>
<circle cx="179.651" cy="162.567" r="2.92801" transform="rotate(34 179.651 162.567)" fill="#FFA500" fill-opacity="0.52"/>
<circle cx="196.296" cy="173.793" r="2.92801" transform="rotate(34 196.296 173.793)" fill="#FFA500" fill-opacity="0.52"/>
<circle cx="214.328" cy="185.955" r="2.92801" transform="rotate(34 214.328 185.955)" fill="#FFA500" fill-opacity="0.52"/>
<circle cx="233.053" cy="198.586" r="2.92801" transform="rotate(34 233.053 198.586)" fill="#FFA500" fill-opacity="0.52"/>
<circle cx="253.166" cy="212.156" r="2.92801" transform="rotate(34 253.166 212.156)" fill="#FFA500" fill-opacity="0.52"/>
<circle cx="273.972" cy="226.183" r="2.92801" transform="rotate(34 273.972 226.183)" fill="#FFA500" fill-opacity="0.52"/>
<circle cx="55.8416" cy="102.267" r="2.92801" transform="rotate(34 55.8416 102.267)" fill="#FFA500" fill-opacity="0.52"/>
<circle cx="72.4868" cy="113.494" r="2.92801" transform="rotate(34 72.4868 113.494)" fill="#FFA500" fill-opacity="0.52"/>
<circle cx="90.5191" cy="125.655" r="2.92801" transform="rotate(34 90.5191 125.655)" fill="#FFA500" fill-opacity="0.52"/>
<circle cx="109.246" cy="138.281" r="2.92801" transform="rotate(34 109.246 138.281)" fill="#FFA500" fill-opacity="0.52"/>
<circle cx="129.359" cy="151.853" r="2.92801" transform="rotate(34 129.359 151.853)" fill="#FFA500" fill-opacity="0.52"/>
<circle cx="150.166" cy="165.891" r="2.92801" transform="rotate(34 150.166 165.891)" fill="#FFA500" fill-opacity="0.52"/>
<circle cx="168.891" cy="178.524" r="2.92801" transform="rotate(34 168.891 178.524)" fill="#FFA500" fill-opacity="0.52"/>
<circle cx="185.536" cy="189.745" r="2.92801" transform="rotate(34 185.536 189.745)" fill="#FFA500" fill-opacity="0.52"/>
<circle cx="203.568" cy="201.905" r="2.92801" transform="rotate(34 203.568 201.905)" fill="#FFA500" fill-opacity="0.52"/>
<circle cx="222.293" cy="214.531" r="2.92801" transform="rotate(34 222.293 214.531)" fill="#FFA500" fill-opacity="0.52"/>
<circle cx="242.406" cy="228.101" r="2.92801" transform="rotate(34 242.406 228.101)" fill="#FFA500" fill-opacity="0.52"/>
<circle cx="263.214" cy="242.147" r="2.92801" transform="rotate(34 263.214 242.147)" fill="#FFA500" fill-opacity="0.52"/>
<circle cx="45.0821" cy="118.217" r="2.92801" transform="rotate(34 45.0821 118.217)" fill="#FFA500" fill-opacity="0.52"/>
<circle cx="61.7275" cy="129.446" r="2.92801" transform="rotate(34 61.7275 129.446)" fill="#FFA500" fill-opacity="0.52"/>
<circle cx="79.7595" cy="141.607" r="2.92801" transform="rotate(34 79.7595 141.607)" fill="#FFA500" fill-opacity="0.52"/>
<circle cx="98.4866" cy="154.24" r="2.92801" transform="rotate(34 98.4866 154.24)" fill="#FFA500" fill-opacity="0.52"/>
<circle cx="118.599" cy="167.806" r="2.92801" transform="rotate(34 118.599 167.806)" fill="#FFA500" fill-opacity="0.52"/>
<circle cx="139.406" cy="181.84" r="2.92801" transform="rotate(34 139.406 181.84)" fill="#FFA500" fill-opacity="0.52"/>
<circle cx="158.132" cy="194.471" r="2.92801" transform="rotate(34 158.132 194.471)" fill="#FFA500" fill-opacity="0.52"/>
<circle cx="174.777" cy="205.695" r="2.92801" transform="rotate(34 174.777 205.695)" fill="#FFA500" fill-opacity="0.52"/>
<circle cx="192.809" cy="217.858" r="2.92801" transform="rotate(34 192.809 217.858)" fill="#FFA500" fill-opacity="0.52"/>
<circle cx="211.535" cy="230.492" r="2.92801" transform="rotate(34 211.535 230.492)" fill="#FFA500" fill-opacity="0.52"/>
<circle cx="231.647" cy="244.052" r="2.92801" transform="rotate(34 231.647 244.052)" fill="#FFA500" fill-opacity="0.52"/>
<circle cx="252.453" cy="258.091" r="2.92801" transform="rotate(34 252.453 258.091)" fill="#FFA500" fill-opacity="0.52"/>
<circle cx="34.7904" cy="133.475" r="2.92801" transform="rotate(34 34.7904 133.475)" fill="#FFA500" fill-opacity="0.52"/>
<circle cx="51.4357" cy="144.702" r="2.92801" transform="rotate(34 51.4357 144.702)" fill="#FFA500" fill-opacity="0.52"/>
<circle cx="69.4678" cy="156.868" r="2.92801" transform="rotate(34 69.4678 156.868)" fill="#FFA500" fill-opacity="0.52"/>
<circle cx="88.195" cy="169.496" r="2.92801" transform="rotate(34 88.195 169.496)" fill="#FFA500" fill-opacity="0.52"/>
<circle cx="108.308" cy="183.063" r="2.92801" transform="rotate(34 108.308 183.063)" fill="#FFA500" fill-opacity="0.52"/>
<circle cx="129.114" cy="197.099" r="2.92801" transform="rotate(34 129.114 197.099)" fill="#FFA500" fill-opacity="0.52"/>
<circle cx="147.84" cy="209.73" r="2.92801" transform="rotate(34 147.84 209.73)" fill="#FFA500" fill-opacity="0.52"/>
<circle cx="164.485" cy="220.953" r="2.92801" transform="rotate(34 164.485 220.953)" fill="#FFA500" fill-opacity="0.52"/>
<circle cx="182.518" cy="233.119" r="2.92801" transform="rotate(34 182.518 233.119)" fill="#FFA500" fill-opacity="0.52"/>
<circle cx="201.243" cy="245.753" r="2.92801" transform="rotate(34 201.243 245.753)" fill="#FFA500" fill-opacity="0.52"/>
<circle cx="221.355" cy="259.309" r="2.92801" transform="rotate(34 221.355 259.309)" fill="#FFA500" fill-opacity="0.52"/>
<circle cx="242.162" cy="273.346" r="2.92801" transform="rotate(34 242.162 273.346)" fill="#FFA500" fill-opacity="0.52"/>
<circle cx="25.4345" cy="147.344" r="2.92801" transform="rotate(34 25.4345 147.344)" fill="#FFA500" fill-opacity="0.52"/>
<circle cx="42.0796" cy="158.573" r="2.92801" transform="rotate(34 42.0796 158.573)" fill="#FFA500" fill-opacity="0.52"/>
<circle cx="60.112" cy="170.738" r="2.92801" transform="rotate(34 60.112 170.738)" fill="#FFA500" fill-opacity="0.52"/>
<circle cx="78.8389" cy="183.366" r="2.92801" transform="rotate(34 78.8389 183.366)" fill="#FFA500" fill-opacity="0.52"/>
<circle cx="98.9519" cy="196.93" r="2.92801" transform="rotate(34 98.9519 196.93)" fill="#FFA500" fill-opacity="0.52"/>
<circle cx="119.758" cy="210.97" r="2.92801" transform="rotate(34 119.758 210.97)" fill="#FFA500" fill-opacity="0.52"/>
<circle cx="138.484" cy="223.601" r="2.92801" transform="rotate(34 138.484 223.601)" fill="#FFA500" fill-opacity="0.52"/>
<circle cx="155.129" cy="234.822" r="2.92801" transform="rotate(34 155.129 234.822)" fill="#FFA500" fill-opacity="0.52"/>
<circle cx="173.161" cy="246.99" r="2.92801" transform="rotate(34 173.161 246.99)" fill="#FFA500" fill-opacity="0.52"/>
<circle cx="191.887" cy="259.623" r="2.92801" transform="rotate(34 191.887 259.623)" fill="#FFA500" fill-opacity="0.52"/>
<circle cx="211.999" cy="273.18" r="2.92801" transform="rotate(34 211.999 273.18)" fill="#FFA500" fill-opacity="0.52"/>
<circle cx="232.806" cy="287.217" r="2.92801" transform="rotate(34 232.806 287.217)" fill="#FFA500" fill-opacity="0.52"/>
<circle cx="15.1428" cy="162.604" r="2.92801" transform="rotate(34 15.1428 162.604)" fill="#FFA500" fill-opacity="0.52"/>
<circle cx="31.7879" cy="173.831" r="2.92801" transform="rotate(34 31.7879 173.831)" fill="#FFA500" fill-opacity="0.52"/>
<circle cx="49.8203" cy="185.992" r="2.92801" transform="rotate(34 49.8203 185.992)" fill="#FFA500" fill-opacity="0.52"/>
<circle cx="68.5473" cy="198.628" r="2.92801" transform="rotate(34 68.5473 198.628)" fill="#FFA500" fill-opacity="0.52"/>
<circle cx="88.6604" cy="212.186" r="2.92801" transform="rotate(34 88.6604 212.186)" fill="#FFA500" fill-opacity="0.52"/>
<circle cx="109.466" cy="226.226" r="2.92801" transform="rotate(34 109.466 226.226)" fill="#FFA500" fill-opacity="0.52"/>
<circle cx="128.192" cy="238.854" r="2.92801" transform="rotate(34 128.192 238.854)" fill="#FFA500" fill-opacity="0.52"/>
<circle cx="144.837" cy="250.083" r="2.92801" transform="rotate(34 144.837 250.083)" fill="#FFA500" fill-opacity="0.52"/>
<circle cx="162.87" cy="262.251" r="2.92801" transform="rotate(34 162.87 262.251)" fill="#FFA500" fill-opacity="0.52"/>
<circle cx="181.596" cy="274.884" r="2.92801" transform="rotate(34 181.596 274.884)" fill="#FFA500" fill-opacity="0.52"/>
<circle cx="201.708" cy="288.44" r="2.92801" transform="rotate(34 201.708 288.44)" fill="#FFA500" fill-opacity="0.52"/>
<circle cx="222.514" cy="302.474" r="2.92801" transform="rotate(34 222.514 302.474)" fill="#FFA500" fill-opacity="0.52"/>
<circle cx="4.8512" cy="177.864" r="2.92801" transform="rotate(34 4.8512 177.864)" fill="#FFA500" fill-opacity="0.52"/>
<circle cx="21.4968" cy="189.088" r="2.92801" transform="rotate(34 21.4968 189.088)" fill="#FFA500" fill-opacity="0.52"/>
<circle cx="39.5286" cy="201.255" r="2.92801" transform="rotate(34 39.5286 201.255)" fill="#FFA500" fill-opacity="0.52"/>
<circle cx="58.2556" cy="213.888" r="2.92801" transform="rotate(34 58.2556 213.888)" fill="#FFA500" fill-opacity="0.52"/>
<circle cx="78.3688" cy="227.446" r="2.92801" transform="rotate(34 78.3688 227.446)" fill="#FFA500" fill-opacity="0.52"/>
<circle cx="99.1748" cy="241.482" r="2.92801" transform="rotate(34 99.1748 241.482)" fill="#FFA500" fill-opacity="0.52"/>
<circle cx="117.901" cy="254.117" r="2.92801" transform="rotate(34 117.901 254.117)" fill="#FFA500" fill-opacity="0.52"/>
<circle cx="134.546" cy="265.342" r="2.92801" transform="rotate(34 134.546 265.342)" fill="#FFA500" fill-opacity="0.52"/>
<circle cx="152.578" cy="277.512" r="2.92801" transform="rotate(34 152.578 277.512)" fill="#FFA500" fill-opacity="0.52"/>
<circle cx="171.304" cy="290.141" r="2.92801" transform="rotate(34 171.304 290.141)" fill="#FFA500" fill-opacity="0.52"/>
<circle cx="191.416" cy="303.699" r="2.92801" transform="rotate(34 191.416 303.699)" fill="#FFA500" fill-opacity="0.52"/>
<circle cx="212.223" cy="317.733" r="2.92801" transform="rotate(34 212.223 317.733)" fill="#FFA500" fill-opacity="0.52"/>
</svg>
