<svg width="356" height="82" viewBox="0 0 356 82" fill="none" xmlns="http://www.w3.org/2000/svg">
<g filter="url(#filter0_d_317_716)">
<path d="M64.9462 6.7534C82.9628 40.5793 96.5544 39.2883 115.835 6.7534C150.288 -12.3549 143.208 56.1752 164.196 20.4384C198.649 -24.2326 199.913 20.4384 226.693 32.3783C256.176 -30.1715 264.394 20.4384 291.893 32.3784C322.237 -40.2417 330.012 56.1752 351 20.4384" stroke="#FFA500"/>
<path d="M0 46.8843C18.0166 80.7102 31.6082 79.4192 50.8891 46.8843C85.342 27.776 78.2618 96.306 99.2496 60.5692C133.702 15.8983 134.967 60.5693 161.746 72.5092C191.229 9.95937 199.447 60.5693 226.947 72.5092C257.29 -0.110864 265.066 96.306 286.054 60.5692" stroke="#FFA500"/>
</g>
<defs>
<filter id="filter0_d_317_716" x="-4.4413" y="0.5" width="359.872" height="80.6699" filterUnits="userSpaceOnUse" color-interpolation-filters="sRGB">
<feFlood flood-opacity="0" result="BackgroundImageFix"/>
<feColorMatrix in="SourceAlpha" type="matrix" values="0 0 0 0 0 0 0 0 0 0 0 0 0 0 0 0 0 0 127 0" result="hardAlpha"/>
<feOffset dy="4"/>
<feGaussianBlur stdDeviation="2"/>
<feComposite in2="hardAlpha" operator="out"/>
<feColorMatrix type="matrix" values="0 0 0 0 0 0 0 0 0 0 0 0 0 0 0 0 0 0 0.25 0"/>
<feBlend mode="normal" in2="BackgroundImageFix" result="effect1_dropShadow_317_716"/>
<feBlend mode="normal" in="SourceGraphic" in2="effect1_dropShadow_317_716" result="shape"/>
</filter>
</defs>
</svg>
